<?xml version="1.0" encoding="utf-8"?>
<!-- Generator: Adobe Illustrator 16.0.3, SVG Export Plug-In . SVG Version: 6.00 Build 0)  -->
<!DOCTYPE svg PUBLIC "-//W3C//DTD SVG 1.1//EN" "http://www.w3.org/Graphics/SVG/1.1/DTD/svg11.dtd">
<svg version="1.1" id="Capa_1" xmlns="http://www.w3.org/2000/svg" xmlns:xlink="http://www.w3.org/1999/xlink" x="0px" y="0px"
	 width="307px" height="195px" viewBox="0 0 307 195" enable-background="new 0 0 307 195" xml:space="preserve">
<g opacity="0.3">
	<image overflow="visible" width="356" height="248" xlink:href="FD62FE24.png"  transform="matrix(1 0 0 1 -22 -24)">
	</image>
</g>
<g id="Capa_3">
	<g opacity="0.7">
		
			<rect x="228.511" y="123.499" fill="#0064FF" stroke="#000000" stroke-width="0.2302" stroke-miterlimit="10" width="19.064" height="37.308"/>
		<path fill="#0096FF" stroke="#000000" stroke-width="0.269" stroke-miterlimit="10" d="M230.097,69.845
			c0,0-13.046,27.303-65.94,60.967c-23.035,14.66-93.721,38.359-93.721,38.359l-3.452-21.138c0,0,64.091-21.573,85.196-31.087
			c29.471-13.283,64.63-42.114,64.63-42.114L230.097,69.845z"/>
		<path fill="#007DFF" stroke="#000000" stroke-width="0.269" stroke-miterlimit="10" d="M247.575,160.807
			c0,0-6.943-7.535-70.294-31.315c-25.929-9.734-106.696-37.42-106.696-37.42l-3.601,23.11c0,0,70.829,19.834,92.931,27.752
			c26.818,9.606,14.686,5.029,68.836,23.343L247.575,160.807z"/>
		<path fill="#00AFFF" stroke="#000000" stroke-width="0.231" stroke-miterlimit="10" d="M50.989,159.882l19.597,9.29
			c0,0-4.69-28.487-4.69-37.983c0-9.779,4.69-39.117,4.69-39.117l-19.597,10.158c0,0-4.688,21.529-4.688,28.709
			C46.3,138.173,50.989,159.882,50.989,159.882z"/>
	</g>
	<g>
		<g>
			<g>
				<polygon fill="#00AFFF" stroke="#000000" stroke-width="0.2563" stroke-miterlimit="10" points="52.19,84.492 75.039,83.368 
					79.463,74.427 52.19,74.427 				"/>
				<g>
					<path fill="#007DFF" d="M52.19,84.492l-8.852-8.012l1.337-25.162c0.4-5.792,0.572-26.105,0.572-26.105l8.669-7.07L52.19,84.492
						z"/>
					<path fill="none" stroke="#000000" stroke-width="0.269" stroke-miterlimit="10" d="M52.19,84.492l-8.852-8.012l1.337-25.162
						c0.4-5.792,0.572-26.105,0.572-26.105l8.669-7.07L52.19,84.492z"/>
				</g>
			</g>
			<g>
				<polygon fill="#00AFFF" stroke="#000000" stroke-width="0.2563" stroke-miterlimit="10" points="135.103,80.657 139.465,73.449 
					114.473,19.509 111.61,33.733 				"/>
				<path fill="#0087D1" stroke="#000000" stroke-width="0.2752" stroke-miterlimit="10" d="M135.103,80.657l4.18-7.241
					c0,0-14.271-13.289-21.421-17.733c-6.252-3.887-21.081-11.247-21.081-11.247l-8.479,3.178c0,0,18.164,11.41,24.385,15.485
					C118.891,67.166,135.103,80.657,135.103,80.657z"/>
				<g>
					<polygon fill="#0096FF" points="101.939,81.766 94.939,74.427 105.499,24.308 114.473,19.509 					"/>
					<polygon fill="none" stroke="#000000" stroke-width="0.269" stroke-miterlimit="10" points="101.939,81.766 94.939,74.427 
						105.499,24.308 114.473,19.509 					"/>
				</g>
			</g>
			<g>
				<g>
					<path fill="#007DFF" d="M189.845,77.155l-8.633,8.353c0,0,3.316-26.753,3.836-35.048c0.515-8.219-0.39-34.177-0.39-34.177
						l8.623,8.091c0,0,0.366,17.589-0.138,25.899C192.637,58.641,189.845,77.155,189.845,77.155z"/>
					<path fill="none" stroke="#000000" stroke-width="0.269" stroke-miterlimit="10" d="M189.845,77.155l-8.633,8.353
						c0,0,3.316-26.753,3.836-35.048c0.515-8.219-0.39-34.177-0.39-34.177l8.623,8.091c0,0,0.366,17.589-0.138,25.899
						C192.637,58.641,189.845,77.155,189.845,77.155z"/>
				</g>
				<polygon fill="#0064FF" stroke="#000000" stroke-width="0.2563" stroke-miterlimit="10" points="193.281,24.375 166.89,24.118 
					173.522,16.283 184.658,16.283 				"/>
				<polygon fill="#00AFFF" stroke="#000000" stroke-width="0.2563" stroke-miterlimit="10" points="180.96,85.662 166.051,85.216 
					157.279,76.205 189.908,76.802 				"/>
			</g>
			<g>
				<polygon fill="#00AFFF" stroke="#000000" stroke-width="0.2563" stroke-miterlimit="10" points="216.811,74.834 230.097,69.845 
					241.684,80.933 227.035,88.416 				"/>
				<g>
					<polygon fill="#007DFF" points="241.684,80.933 227.035,88.416 255.004,13.464 265.178,13.464 					"/>
					<polygon fill="none" stroke="#000000" stroke-width="0.269" stroke-miterlimit="10" points="241.684,80.933 227.035,88.416 
						255.004,13.464 265.178,13.464 					"/>
				</g>
				<g>
					<polygon fill="#007DFF" points="249.515,49.15 238.251,50.896 212.429,21.71 217.681,14.573 					"/>
					<polygon fill="none" stroke="#000000" stroke-width="0.269" stroke-miterlimit="10" points="249.515,49.15 238.251,50.896 
						212.429,21.71 217.681,14.573 					"/>
				</g>
				<polygon fill="#0064FF" stroke="#000000" stroke-width="0.2563" stroke-miterlimit="10" points="255.004,13.464 238.251,50.896 
					249.515,49.15 265.178,13.464 				"/>
			</g>
		</g>
	</g>
	<g>
		<g>
			<g>
				<polygon fill="#0064FF" stroke="#000000" stroke-width="0.2563" stroke-miterlimit="10" points="15.252,142.019 15.252,127.366 
					36.105,92.296 36.105,106.572 				"/>
				<g>
					<polygon fill="#0096FF" points="15.252,127.892 15.252,142.019 36.105,171.203 36.105,158.246 					"/>
					<polygon fill="none" stroke="#000000" stroke-width="0.269" stroke-miterlimit="10" points="15.252,127.892 15.252,142.019 
						36.105,171.203 36.105,158.246 					"/>
				</g>
			</g>
		</g>
	</g>
	<g>
		<g>
			<g>
				<polygon fill="#0064FF" stroke="#000000" stroke-width="0.2563" stroke-miterlimit="10" points="291.561,141.486 
					291.561,126.833 270.706,91.765 270.706,106.04 				"/>
				<g>
					<polygon fill="#0096FF" points="291.561,127.358 291.561,141.486 270.706,170.673 270.706,157.715 					"/>
					<polygon fill="none" stroke="#000000" stroke-width="0.269" stroke-miterlimit="10" points="291.561,127.358 291.561,141.486 
						270.706,170.673 270.706,157.715 					"/>
				</g>
				<polygon fill="#00AFFF" stroke="#000000" stroke-width="0.231" stroke-miterlimit="10" points="289.55,90.473 289.55,104.593 
					249.272,172.406 249.272,157.989 				"/>
			</g>
		</g>
	</g>
</g>
<g id="Capa_1_1_">
	<g>
		<g enable-background="new    ">
			<path fill="#FF0000" d="M78.858,120.73h-1.43c0.144-0.922,0.216-1.653,0.216-2.195c0-0.721-0.303-1.194-0.907-1.42
				c-0.603-0.225-2.878-0.339-6.82-0.339l-3.945,0.025l-2.968,11.939h5.579c1.761,0,2.843-0.132,3.248-0.393
				c0.404-0.261,0.697-0.915,0.875-1.966h1.54c-0.577,2.185-1.089,4.587-1.54,7.201H71.33c0.089-0.851,0.135-1.505,0.135-1.977
				c0-0.197-0.126-0.438-0.378-0.727c-0.127-0.146-0.361-0.246-0.703-0.301c-0.486-0.088-1.242-0.134-2.268-0.134h-5.536
				c-1.595,6.125-3.253,10.929-4.975,14.409c1.673-0.532,3.159-0.796,4.455-0.796c2.161,0,4.809,0.345,7.941,1.029
				c1.657,0.38,2.781,0.571,3.376,0.571c0.792,0,1.43-0.199,1.918-0.594c0.485-0.395,0.728-0.846,0.728-1.348
				c0-0.288-0.123-0.755-0.368-1.401c-0.151-0.449-0.227-0.872-0.227-1.271c0-0.411,0.166-0.78,0.5-1.104
				c0.333-0.32,0.733-0.483,1.201-0.483c0.557,0,1.021,0.219,1.39,0.649c0.368,0.437,0.553,1.013,0.553,1.73
				c0,1.537-0.671,2.882-2.013,4.036c-1.341,1.153-3.111,1.732-5.307,1.732c-1.151,0-2.611-0.101-4.375-0.301
				c-3.872-0.432-6.824-0.648-8.858-0.648c-2.666,0-5.781,0.218-9.346,0.648l0.427-1.51c2.134-0.589,3.393-1.025,3.772-1.304
				c0.381-0.276,0.697-0.683,0.951-1.219c0.862-1.713,1.98-5.15,3.354-10.304c1.373-5.154,2.77-10.601,4.19-16.332
				c-2.162,0-4.206,0.514-6.135,1.541c-1.928,1.029-3.431,2.364-4.512,4.017c-1.082,1.646-1.621,3.38-1.621,5.198
				c0,0.777,0.076,1.451,0.23,2.029c0.152,0.576,0.5,1.386,1.039,2.43c0.342,0.63,0.512,1.146,0.512,1.543
				c0,0.396-0.165,0.749-0.496,1.055c-0.33,0.304-0.737,0.459-1.22,0.459c-0.699,0-1.252-0.352-1.662-1.055
				c-0.609-1.03-0.913-2.426-0.913-4.196c0-3.79,1.43-7.189,4.29-10.206c2.861-3.013,7.025-4.521,12.496-4.521h9.257
				c3.203,0,5.568-0.207,7.098-0.622C79.514,117.325,79.055,119.462,78.858,120.73z"/>
			<path fill="#FF0000" d="M83.229,130.258l-0.917-0.947c2.305-2.212,4.142-3.681,5.511-4.407c1.369-0.725,2.538-1.088,3.511-1.088
				c0.379,0,0.675,0.079,0.892,0.244c0.215,0.16,0.323,0.351,0.323,0.568c0,0.161-0.045,0.452-0.135,0.866l-1.217,5.449
				c1.832-2.043,4.13-3.95,6.898-5.718c1.472-0.922,2.684-1.383,3.636-1.383c0.702,0,1.249,0.228,1.644,0.678
				c0.395,0.451,0.594,1.101,0.594,1.949c0,0.559-0.081,1.191-0.243,1.895c-0.286,1.175-1.04,3.726-2.259,7.661
				c-1.147,3.682-1.721,6.127-1.721,7.336c0,0.369,0.055,0.646,0.161,0.833c0.108,0.185,0.261,0.277,0.46,0.277
				c0.521,0,1.339-0.505,2.456-1.518c0.791-0.72,1.582-1.391,2.374-2.003l0.674,0.975c-1.656,1.83-3.375,3.303-5.156,4.415
				c-1.133,0.718-2.068,1.08-2.806,1.08c-0.685,0-1.215-0.252-1.592-0.747c-0.378-0.495-0.567-1.302-0.567-2.423
				c0-1.605,0.998-5.603,2.995-11.992c0.611-2.273,0.917-3.598,0.917-3.979c0-0.558-0.333-0.838-0.999-0.838
				c-0.719,0-1.645,0.378-2.779,1.136c-1.691,1.122-3.104,2.438-4.237,3.957c-0.72,0.978-1.322,2.53-1.808,4.661l-2.184,9.465
				h-4.021c0.756-2.708,1.412-5.303,1.97-7.78l2.402-10.298c0.09-0.416,0.134-0.717,0.134-0.898c0-0.486-0.18-0.73-0.539-0.73
				c-0.289,0-0.702,0.193-1.241,0.576C85.245,128.274,84.201,129.183,83.229,130.258z"/>
			<path fill="#FF0000" d="M115.398,119.728l4.285-1.647l-1.938,7.576h5.588l-0.433,1.922h-5.593l-2.354,9.072
				c-0.748,2.722-1.121,4.616-1.121,5.682c0,0.485,0.102,0.837,0.311,1.054c0.206,0.218,0.49,0.325,0.85,0.325
				c0.557,0,1.411-0.332,2.563-0.999c1.511-0.885,2.951-1.886,4.317-3.007l1.027,1.246c-3.939,2.979-6.576,4.801-7.907,5.469
				c-1.332,0.667-2.403,0.999-3.212,0.999c-0.666,0-1.193-0.243-1.579-0.729c-0.386-0.486-0.581-1.278-0.581-2.381
				c0-1.3,0.342-3.284,1.026-5.955l2.747-10.774h-4.373l0.485-1.918h4.377L115.398,119.728z"/>
			<path fill="#FF0000" d="M139.662,139.867l0.891,1.19c-4.409,4.206-8.188,6.307-11.335,6.307c-1.277,0-2.254-0.435-2.928-1.301
				c-0.673-0.863-1.013-2.255-1.013-4.169c0-3.859,1.169-7.704,3.508-11.531c2.626-4.349,5.767-6.522,9.419-6.522
				c1.277,0,2.254,0.318,2.928,0.96c0.676,0.638,1.013,1.52,1.013,2.639c0,1.177-0.404,2.331-1.215,3.467
				c-0.81,1.133-2.257,2.318-4.345,3.543c-1.043,0.598-3.273,1.671-6.692,3.221c-0.162,0.974-0.243,1.904-0.243,2.79
				c0,1.281,0.202,2.176,0.606,2.679c0.404,0.507,0.993,0.758,1.769,0.758c0.737,0,1.546-0.205,2.429-0.622
				C135.64,142.718,137.375,141.583,139.662,139.867z M130.216,135.94c2.896-1.299,5.075-2.696,6.531-4.195
				c0.989-1.044,1.485-2.082,1.485-3.112c0-0.774-0.202-1.395-0.607-1.854c-0.404-0.462-0.93-0.691-1.578-0.691
				c-0.666,0-1.313,0.256-1.944,0.759c-0.844,0.67-1.556,1.678-2.131,3.032C131.142,131.864,130.557,133.886,130.216,135.94z"/>
			<path fill="#FF0000" d="M149.296,146.661h-4.022l1.889-7.279c0.918-3.575,1.719-6.966,2.403-10.178
				c0.161-0.793,0.242-1.292,0.242-1.489c0-0.434-0.197-0.648-0.593-0.648c-0.27,0-0.685,0.184-1.242,0.553
				c-0.558,0.369-1.564,1.286-3.022,2.748l-0.837-0.946c1.727-1.858,3.449-3.253,5.167-4.182c1.718-0.93,3.035-1.396,3.952-1.396
				c0.324,0,0.58,0.078,0.769,0.23c0.189,0.152,0.284,0.349,0.284,0.582c0,0.236-0.117,0.859-0.356,1.874l-1.174,4.871
				c1.822-2.881,3.875-5.343,6.166-7.391c1.1-0.977,2.019-1.466,2.758-1.466c0.541,0,0.992,0.176,1.354,0.529
				c0.36,0.351,0.539,0.763,0.539,1.23c0,0.485-0.175,0.901-0.524,1.244c-0.353,0.344-1.229,0.751-2.631,1.219
				c-1.33,0.451-2.414,0.993-3.249,1.626c-0.839,0.63-1.752,1.595-2.751,2.895c-0.997,1.302-1.693,2.434-2.092,3.397
				c-0.397,0.966-1.001,3.21-1.813,6.725L149.296,146.661z"/>
			<path fill="#FF0000" d="M161.279,130.609l-1.054-1.085c1.638-1.965,3.266-3.418,4.886-4.358c1.618-0.939,3.021-1.409,4.211-1.409
				c0.447,0,0.804,0.114,1.065,0.338c0.259,0.228,0.393,0.556,0.393,0.99c0,0.525-0.059,1.061-0.175,1.611
				c-0.118,0.55-0.483,1.854-1.092,3.91c2.751-2.761,4.632-4.466,5.643-5.115c1.688-1.099,3.238-1.65,4.639-1.65
				c0.919,0,1.692,0.434,2.323,1.3c0.626,0.865,0.943,2.175,0.943,3.924c0,4.366-1.357,8.518-4.072,12.45
				c-2.714,3.936-5.716,5.9-9.007,5.9c-1.295,0-2.59-0.351-3.883-1.055l-2.307,8.934c-0.146,0.542-0.216,0.983-0.216,1.325
				c0,0.669,0.253,1.144,0.756,1.435c0.772,0.45,2.402,0.822,4.885,1.109l-0.353,1.355c-2.896-0.234-5.175-0.35-6.828-0.35
				c-1.709,0-3.924,0.115-6.639,0.35l0.348-1.354c1.369-0.146,2.363-0.523,2.985-1.136c0.62-0.613,1.119-1.705,1.495-3.273
				l4.887-20.545c0.916-3.825,1.375-5.954,1.375-6.391c0-0.469-0.225-0.703-0.674-0.703
				C165.021,127.118,163.509,128.281,161.279,130.609z M166.743,143.386c1.421,1.427,2.879,2.138,4.37,2.138
				c2.154,0,4.046-1.685,5.672-5.059c1.626-3.373,2.438-6.669,2.438-9.881c0-1.03-0.228-1.808-0.687-2.339
				c-0.457-0.53-1.073-0.801-1.842-0.801c-0.863,0-1.834,0.426-2.91,1.271c-1.671,1.319-2.944,2.626-3.826,3.925
				c-0.627,0.94-1.22,2.565-1.777,4.875L166.743,143.386z"/>
			<path fill="#FF0000" d="M190.181,146.661h-4.019l1.888-7.279c0.917-3.575,1.716-6.966,2.402-10.178
				c0.16-0.793,0.244-1.292,0.244-1.489c0-0.434-0.199-0.648-0.594-0.648c-0.271,0-0.685,0.184-1.241,0.553
				c-0.559,0.369-1.565,1.286-3.023,2.748l-0.837-0.946c1.728-1.858,3.447-3.253,5.168-4.182c1.718-0.93,3.033-1.396,3.951-1.396
				c0.322,0,0.578,0.078,0.769,0.23c0.188,0.152,0.282,0.349,0.282,0.582c0,0.236-0.117,0.859-0.354,1.874l-1.173,4.871
				c1.818-2.881,3.874-5.343,6.164-7.391c1.1-0.977,2.017-1.466,2.758-1.466c0.539,0,0.99,0.176,1.352,0.529
				c0.36,0.351,0.542,0.763,0.542,1.23c0,0.485-0.176,0.901-0.529,1.244c-0.349,0.344-1.225,0.751-2.629,1.219
				c-1.331,0.451-2.414,0.993-3.248,1.626c-0.837,0.63-1.753,1.595-2.751,2.895c-0.997,1.302-1.694,2.434-2.093,3.397
				c-0.396,0.966-0.999,3.21-1.813,6.725L190.181,146.661z"/>
			<path fill="#FF0000" d="M202.624,130.178l-1.188-0.92c1.799-1.985,3.436-3.396,4.918-4.24c1.485-0.836,2.746-1.257,3.787-1.257
				c0.578,0,1.018,0.128,1.322,0.38c0.305,0.254,0.457,0.594,0.457,1.029c0,0.524-0.581,2.742-1.748,6.66
				c-1.902,6.403-2.853,10.269-2.853,11.581c0,0.256,0.063,0.469,0.188,0.638c0.126,0.169,0.261,0.257,0.405,0.257
				c0.576,0,2.05-1.119,4.426-3.355l1.05,1.029c-2.463,2.329-4.262,3.816-5.396,4.466c-1.135,0.648-2.06,0.974-2.781,0.974
				c-0.628,0-1.128-0.199-1.497-0.595s-0.551-0.946-0.551-1.65c0-2.255,1.349-7.77,4.048-16.539
				c0.122-0.414,0.188-0.784,0.188-1.108c0-0.362-0.162-0.541-0.486-0.541c-0.359,0-0.77,0.146-1.227,0.435
				C205.229,127.705,204.206,128.624,202.624,130.178z M213.23,112.257c0.557,0,1.015,0.185,1.376,0.558
				c0.359,0.368,0.54,0.843,0.54,1.418c0,0.795-0.276,1.493-0.824,2.099c-0.549,0.604-1.162,0.907-1.847,0.907
				c-0.541,0-0.991-0.19-1.352-0.568c-0.359-0.38-0.539-0.875-0.539-1.489c0-0.813,0.26-1.502,0.783-2.073
				C211.888,112.544,212.511,112.257,213.23,112.257z"/>
			<path fill="#FF0000" d="M226.859,123.896c1.6,0,2.836,0.312,3.707,0.934c0.874,0.624,1.312,1.342,1.312,2.151
				c0,0.486-0.185,0.913-0.554,1.273c-0.367,0.362-0.814,0.54-1.335,0.54c-0.343,0-0.639-0.077-0.892-0.228
				c-0.255-0.156-0.61-0.537-1.083-1.152c-0.881-1.173-1.753-1.759-2.613-1.759c-0.741,0-1.392,0.284-1.959,0.851
				c-0.568,0.569-0.85,1.276-0.85,2.123c0,0.739,0.176,1.456,0.538,2.146c0.359,0.695,1.266,1.819,2.724,3.367
				c1.997,2.128,2.996,4.146,2.996,6.056c0,1.913-0.808,3.579-2.427,5.015c-1.619,1.433-3.708,2.149-6.261,2.149
				c-2.144,0-3.733-0.438-4.775-1.314c-1.045-0.875-1.568-1.953-1.568-3.234c0-0.631,0.199-1.154,0.595-1.57
				c0.396-0.413,0.882-0.624,1.457-0.624c0.505,0,0.937,0.167,1.294,0.503c0.362,0.332,0.539,0.726,0.539,1.176
				c0,0.183-0.012,0.415-0.032,0.706c-0.015,0.233-0.02,0.435-0.02,0.596c0,0.594,0.251,1.101,0.753,1.513
				c0.484,0.416,1.15,0.626,1.991,0.626c0.968,0,1.819-0.166,2.556-0.501c0.735-0.332,1.31-0.839,1.722-1.511
				c0.412-0.677,0.622-1.349,0.622-2.015c0-0.648-0.194-1.298-0.579-1.946c-0.389-0.649-1.257-1.723-2.604-3.218
				c-1.872-2.09-2.808-4.098-2.808-6.026c0-1.768,0.713-3.313,2.131-4.641C222.854,124.559,224.663,123.896,226.859,123.896z"/>
			<path fill="#FF0000" d="M246.83,139.867l0.889,1.19c-4.406,4.206-8.185,6.307-11.333,6.307c-1.278,0-2.255-0.435-2.929-1.301
				c-0.672-0.863-1.013-2.255-1.013-4.169c0-3.859,1.17-7.704,3.51-11.531c2.627-4.349,5.765-6.522,9.419-6.522
				c1.275,0,2.254,0.318,2.929,0.96c0.672,0.638,1.011,1.52,1.011,2.639c0,1.177-0.405,2.331-1.217,3.467
				c-0.813,1.133-2.26,2.318-4.348,3.543c-1.043,0.598-3.274,1.671-6.693,3.221c-0.16,0.974-0.243,1.904-0.243,2.79
				c0,1.281,0.203,2.176,0.607,2.679c0.405,0.507,0.995,0.758,1.767,0.758c0.741,0,1.55-0.205,2.43-0.622
				C242.808,142.718,244.543,141.583,246.83,139.867z M237.385,135.94c2.896-1.299,5.072-2.696,6.529-4.195
				c0.991-1.044,1.483-2.082,1.483-3.112c0-0.774-0.202-1.395-0.606-1.854c-0.403-0.462-0.931-0.691-1.578-0.691
				c-0.667,0-1.313,0.256-1.943,0.759c-0.846,0.67-1.557,1.678-2.133,3.032C238.311,131.864,237.725,133.886,237.385,135.94z"/>
		</g>
		<g enable-background="new    ">
			<path fill="none" stroke="#000000" stroke-width="0.5535" stroke-miterlimit="10" d="M78.858,120.73h-1.43
				c0.144-0.922,0.216-1.653,0.216-2.195c0-0.721-0.303-1.194-0.907-1.42c-0.603-0.225-2.878-0.339-6.82-0.339l-3.945,0.025
				l-2.968,11.939h5.579c1.761,0,2.843-0.132,3.248-0.393c0.404-0.261,0.697-0.915,0.875-1.966h1.54
				c-0.577,2.185-1.089,4.587-1.54,7.201H71.33c0.089-0.851,0.135-1.505,0.135-1.977c0-0.197-0.126-0.438-0.378-0.727
				c-0.127-0.146-0.361-0.246-0.703-0.301c-0.486-0.088-1.242-0.134-2.268-0.134h-5.536c-1.595,6.125-3.253,10.929-4.975,14.409
				c1.673-0.532,3.159-0.796,4.455-0.796c2.161,0,4.809,0.345,7.941,1.029c1.657,0.38,2.781,0.571,3.376,0.571
				c0.792,0,1.43-0.199,1.918-0.594c0.485-0.394,0.728-0.846,0.728-1.348c0-0.288-0.123-0.755-0.368-1.401
				c-0.151-0.449-0.227-0.872-0.227-1.271c0-0.411,0.166-0.78,0.5-1.104c0.333-0.32,0.733-0.484,1.201-0.484
				c0.557,0,1.021,0.216,1.39,0.65c0.368,0.437,0.553,1.01,0.553,1.73c0,1.537-0.671,2.882-2.013,4.036
				c-1.341,1.153-3.111,1.732-5.307,1.732c-1.151,0-2.611-0.101-4.375-0.301c-3.872-0.432-6.824-0.648-8.858-0.648
				c-2.666,0-5.781,0.218-9.346,0.648l0.427-1.51c2.134-0.589,3.393-1.025,3.772-1.304c0.381-0.276,0.697-0.683,0.951-1.219
				c0.862-1.713,1.98-5.15,3.354-10.304c1.373-5.154,2.77-10.602,4.19-16.332c-2.162,0-4.206,0.514-6.135,1.541
				c-1.928,1.03-3.431,2.364-4.512,4.017c-1.082,1.646-1.621,3.38-1.621,5.198c0,0.777,0.076,1.451,0.23,2.029
				c0.152,0.576,0.5,1.386,1.039,2.43c0.342,0.63,0.512,1.144,0.512,1.543c0,0.396-0.165,0.749-0.496,1.055
				c-0.33,0.302-0.737,0.459-1.22,0.459c-0.699,0-1.252-0.352-1.662-1.055c-0.609-1.03-0.913-2.426-0.913-4.196
				c0-3.79,1.43-7.189,4.29-10.206c2.861-3.013,7.025-4.521,12.496-4.521h9.257c3.203,0,5.568-0.207,7.098-0.622
				C79.514,117.325,79.055,119.462,78.858,120.73z"/>
			<path fill="none" stroke="#000000" stroke-width="0.5535" stroke-miterlimit="10" d="M83.229,130.258l-0.917-0.947
				c2.305-2.212,4.142-3.681,5.511-4.409c1.369-0.723,2.538-1.086,3.511-1.086c0.379,0,0.675,0.078,0.892,0.244
				c0.215,0.16,0.323,0.351,0.323,0.568c0,0.161-0.045,0.452-0.135,0.866l-1.217,5.449c1.832-2.043,4.13-3.952,6.898-5.718
				c1.472-0.922,2.684-1.383,3.636-1.383c0.702,0,1.249,0.228,1.644,0.678c0.395,0.451,0.594,1.101,0.594,1.949
				c0,0.559-0.081,1.191-0.243,1.895c-0.286,1.175-1.04,3.726-2.259,7.661c-1.147,3.682-1.721,6.127-1.721,7.336
				c0,0.369,0.055,0.646,0.161,0.833c0.108,0.185,0.261,0.277,0.46,0.277c0.521,0,1.339-0.505,2.456-1.518
				c0.791-0.72,1.582-1.391,2.374-2.003l0.674,0.975c-1.656,1.828-3.375,3.303-5.156,4.415c-1.133,0.716-2.068,1.08-2.806,1.08
				c-0.685,0-1.215-0.252-1.592-0.748c-0.378-0.494-0.567-1.303-0.567-2.422c0-1.607,0.998-5.606,2.995-11.993
				c0.611-2.273,0.917-3.597,0.917-3.979c0-0.558-0.333-0.839-0.999-0.839c-0.719,0-1.645,0.38-2.779,1.137
				c-1.691,1.122-3.104,2.438-4.237,3.957c-0.72,0.977-1.322,2.528-1.808,4.661l-2.184,9.466h-4.021
				c0.756-2.708,1.412-5.303,1.97-7.78l2.402-10.298c0.09-0.416,0.134-0.718,0.134-0.898c0-0.486-0.18-0.73-0.539-0.73
				c-0.289,0-0.702,0.193-1.241,0.576C85.245,128.274,84.201,129.183,83.229,130.258z"/>
			<path fill="none" stroke="#000000" stroke-width="0.5535" stroke-miterlimit="10" d="M115.398,119.728l4.285-1.647l-1.938,7.576
				h5.588l-0.433,1.922h-5.593l-2.354,9.072c-0.748,2.722-1.121,4.616-1.121,5.682c0,0.485,0.102,0.837,0.311,1.054
				c0.206,0.218,0.49,0.325,0.85,0.325c0.557,0,1.411-0.332,2.563-0.999c1.511-0.885,2.951-1.886,4.317-3.007l1.027,1.246
				c-3.939,2.98-6.576,4.801-7.907,5.47c-1.332,0.667-2.403,0.998-3.212,0.998c-0.666,0-1.193-0.243-1.579-0.729
				c-0.386-0.484-0.581-1.278-0.581-2.381c0-1.299,0.342-3.284,1.026-5.953l2.747-10.775h-4.373l0.485-1.917h4.377L115.398,119.728z
				"/>
			<path fill="none" stroke="#000000" stroke-width="0.5535" stroke-miterlimit="10" d="M139.662,139.867l0.891,1.19
				c-4.409,4.206-8.188,6.307-11.335,6.307c-1.277,0-2.254-0.435-2.928-1.301c-0.673-0.863-1.013-2.255-1.013-4.169
				c0-3.859,1.169-7.704,3.508-11.531c2.626-4.349,5.767-6.522,9.419-6.522c1.277,0,2.254,0.318,2.928,0.96
				c0.676,0.638,1.013,1.519,1.013,2.639c0,1.177-0.404,2.331-1.215,3.467c-0.81,1.133-2.257,2.318-4.345,3.543
				c-1.043,0.598-3.273,1.671-6.692,3.221c-0.162,0.974-0.243,1.904-0.243,2.79c0,1.281,0.202,2.176,0.606,2.679
				c0.404,0.507,0.993,0.758,1.769,0.758c0.737,0,1.546-0.205,2.429-0.622C135.64,142.718,137.375,141.583,139.662,139.867z
				 M130.216,135.94c2.896-1.299,5.075-2.696,6.531-4.195c0.989-1.044,1.485-2.082,1.485-3.112c0-0.774-0.202-1.395-0.607-1.854
				c-0.404-0.462-0.93-0.691-1.578-0.691c-0.666,0-1.313,0.256-1.944,0.759c-0.844,0.67-1.556,1.678-2.131,3.032
				C131.142,131.864,130.557,133.886,130.216,135.94z"/>
			<path fill="none" stroke="#000000" stroke-width="0.5535" stroke-miterlimit="10" d="M149.296,146.661h-4.022l1.889-7.279
				c0.918-3.575,1.719-6.966,2.403-10.178c0.161-0.793,0.242-1.292,0.242-1.489c0-0.434-0.197-0.648-0.593-0.648
				c-0.27,0-0.685,0.184-1.242,0.553c-0.558,0.369-1.564,1.286-3.022,2.748l-0.837-0.946c1.727-1.858,3.449-3.253,5.167-4.182
				c1.718-0.93,3.035-1.396,3.952-1.396c0.324,0,0.58,0.078,0.769,0.23c0.189,0.152,0.284,0.349,0.284,0.582
				c0,0.236-0.116,0.858-0.356,1.874l-1.174,4.871c1.822-2.881,3.875-5.343,6.166-7.391c1.1-0.977,2.019-1.466,2.758-1.466
				c0.541,0,0.992,0.176,1.354,0.529c0.36,0.351,0.539,0.763,0.539,1.23c0,0.485-0.175,0.901-0.524,1.244
				c-0.353,0.344-1.229,0.751-2.631,1.219c-1.33,0.451-2.416,0.993-3.249,1.626c-0.839,0.63-1.752,1.595-2.751,2.895
				c-0.997,1.302-1.693,2.434-2.092,3.397c-0.397,0.966-1.001,3.21-1.814,6.725L149.296,146.661z"/>
			<path fill="none" stroke="#000000" stroke-width="0.5535" stroke-miterlimit="10" d="M161.279,130.609l-1.054-1.086
				c1.638-1.964,3.266-3.418,4.886-4.358c1.618-0.939,3.021-1.408,4.211-1.408c0.447,0,0.806,0.114,1.067,0.338
				c0.257,0.228,0.391,0.556,0.391,0.99c0,0.525-0.059,1.061-0.175,1.611c-0.117,0.549-0.483,1.854-1.09,3.91
				c2.749-2.761,4.63-4.466,5.641-5.115c1.688-1.099,3.238-1.65,4.639-1.65c0.919,0,1.692,0.434,2.323,1.3
				c0.626,0.865,0.944,2.175,0.944,3.924c0,4.366-1.358,8.518-4.073,12.45c-2.714,3.938-5.716,5.9-9.005,5.9
				c-1.295,0-2.59-0.348-3.883-1.055l-2.309,8.935c-0.146,0.541-0.214,0.984-0.214,1.324c0,0.671,0.252,1.144,0.756,1.435
				c0.772,0.45,2.403,0.822,4.886,1.109l-0.354,1.357c-2.896-0.234-5.174-0.35-6.826-0.35c-1.71,0-3.923,0.116-6.64,0.35
				l0.348-1.355c1.368-0.146,2.365-0.523,2.984-1.135c0.62-0.614,1.118-1.706,1.496-3.274l4.887-20.544
				c0.917-3.825,1.374-5.955,1.374-6.392c0-0.469-0.224-0.703-0.673-0.703C165.021,127.118,163.509,128.281,161.279,130.609z
				 M166.743,143.386c1.421,1.427,2.879,2.138,4.37,2.138c2.154,0,4.046-1.685,5.672-5.057c1.626-3.374,2.438-6.671,2.438-9.881
				c0-1.03-0.228-1.808-0.687-2.337c-0.457-0.533-1.073-0.804-1.842-0.804c-0.863,0-1.834,0.427-2.91,1.271
				c-1.671,1.319-2.944,2.626-3.826,3.925c-0.627,0.941-1.22,2.565-1.777,4.875L166.743,143.386z"/>
			<path fill="none" stroke="#000000" stroke-width="0.5535" stroke-miterlimit="10" d="M190.181,146.661h-4.019l1.888-7.279
				c0.917-3.575,1.716-6.966,2.402-10.178c0.16-0.793,0.244-1.292,0.244-1.489c0-0.434-0.199-0.648-0.594-0.648
				c-0.271,0-0.685,0.184-1.241,0.553c-0.559,0.369-1.565,1.286-3.023,2.748l-0.837-0.946c1.728-1.858,3.447-3.253,5.168-4.182
				c1.718-0.93,3.033-1.396,3.951-1.396c0.322,0,0.578,0.078,0.769,0.23c0.188,0.152,0.282,0.349,0.282,0.582
				c0,0.236-0.117,0.858-0.354,1.874l-1.173,4.871c1.818-2.881,3.874-5.343,6.164-7.391c1.1-0.977,2.017-1.466,2.758-1.466
				c0.538,0,0.99,0.176,1.352,0.529c0.36,0.351,0.542,0.763,0.542,1.23c0,0.485-0.176,0.901-0.53,1.244
				c-0.348,0.344-1.224,0.751-2.628,1.219c-1.333,0.451-2.416,0.993-3.248,1.626c-0.837,0.63-1.753,1.595-2.751,2.895
				c-0.997,1.302-1.694,2.434-2.093,3.397c-0.396,0.966-0.999,3.21-1.813,6.725L190.181,146.661z"/>
			<path fill="none" stroke="#000000" stroke-width="0.5535" stroke-miterlimit="10" d="M202.624,130.178l-1.188-0.92
				c1.799-1.985,3.436-3.396,4.918-4.24c1.485-0.836,2.746-1.257,3.787-1.257c0.578,0,1.018,0.128,1.322,0.38
				c0.305,0.254,0.457,0.594,0.457,1.031c0,0.523-0.581,2.742-1.748,6.658c-1.902,6.403-2.853,10.27-2.853,11.581
				c0,0.256,0.063,0.47,0.188,0.638c0.126,0.169,0.261,0.257,0.405,0.257c0.576,0,2.05-1.119,4.426-3.355l1.05,1.029
				c-2.463,2.329-4.262,3.816-5.396,4.466c-1.135,0.648-2.06,0.974-2.781,0.974c-0.628,0-1.128-0.199-1.499-0.595
				c-0.367-0.395-0.553-0.946-0.553-1.648c0-2.255,1.351-7.771,4.049-16.54c0.123-0.414,0.189-0.784,0.189-1.107
				c0-0.362-0.161-0.543-0.486-0.543c-0.358,0-0.769,0.147-1.225,0.437C205.229,127.705,204.206,128.624,202.624,130.178z
				 M213.23,112.257c0.557,0,1.015,0.185,1.376,0.558c0.359,0.368,0.54,0.843,0.54,1.418c0,0.795-0.276,1.493-0.824,2.099
				c-0.549,0.604-1.162,0.907-1.847,0.907c-0.541,0-0.991-0.19-1.352-0.568c-0.359-0.38-0.539-0.875-0.539-1.489
				c0-0.813,0.26-1.502,0.783-2.073C211.888,112.544,212.511,112.257,213.23,112.257z"/>
			<path fill="none" stroke="#000000" stroke-width="0.5535" stroke-miterlimit="10" d="M226.859,123.896
				c1.6,0,2.836,0.312,3.707,0.934c0.874,0.625,1.312,1.342,1.312,2.151c0,0.486-0.185,0.913-0.554,1.273
				c-0.367,0.362-0.814,0.54-1.335,0.54c-0.343,0-0.639-0.077-0.892-0.228c-0.255-0.157-0.61-0.537-1.083-1.152
				c-0.881-1.175-1.754-1.759-2.613-1.759c-0.742,0-1.393,0.284-1.959,0.851c-0.568,0.569-0.85,1.276-0.85,2.123
				c0,0.739,0.176,1.456,0.536,2.146c0.358,0.695,1.268,1.819,2.725,3.367c1.998,2.128,2.997,4.146,2.997,6.056
				c0,1.913-0.808,3.579-2.427,5.015c-1.619,1.433-3.708,2.148-6.261,2.148c-2.144,0-3.733-0.44-4.775-1.313
				c-1.045-0.876-1.568-1.955-1.568-3.234c0-0.632,0.199-1.154,0.595-1.57c0.396-0.415,0.882-0.626,1.457-0.626
				c0.505,0,0.937,0.169,1.294,0.504c0.362,0.333,0.538,0.726,0.538,1.177c0,0.183-0.011,0.415-0.031,0.706
				c-0.016,0.233-0.021,0.435-0.021,0.596c0,0.594,0.251,1.101,0.755,1.513c0.484,0.416,1.15,0.625,1.991,0.625
				c0.968,0,1.819-0.165,2.556-0.5c0.735-0.334,1.31-0.84,1.722-1.511c0.412-0.677,0.623-1.35,0.623-2.015
				c0-0.648-0.194-1.298-0.579-1.946c-0.388-0.649-1.256-1.723-2.604-3.218c-1.87-2.09-2.807-4.098-2.807-6.026
				c0-1.768,0.712-3.313,2.132-4.643C222.854,124.559,224.663,123.896,226.859,123.896z"/>
			<path fill="none" stroke="#000000" stroke-width="0.5535" stroke-miterlimit="10" d="M246.83,139.867l0.889,1.19
				c-4.406,4.206-8.185,6.307-11.333,6.307c-1.278,0-2.255-0.435-2.929-1.301c-0.672-0.863-1.013-2.255-1.013-4.169
				c0-3.859,1.17-7.704,3.51-11.531c2.627-4.349,5.765-6.522,9.419-6.522c1.275,0,2.254,0.318,2.929,0.96
				c0.67,0.638,1.011,1.519,1.011,2.639c0,1.177-0.405,2.331-1.219,3.467c-0.813,1.133-2.259,2.318-4.348,3.543
				c-1.042,0.598-3.274,1.671-6.692,3.221c-0.16,0.974-0.244,1.904-0.244,2.79c0,1.281,0.203,2.176,0.608,2.679
				c0.404,0.507,0.992,0.758,1.766,0.758c0.739,0,1.551-0.205,2.43-0.622C242.808,142.718,244.543,141.583,246.83,139.867z
				 M237.385,135.94c2.896-1.299,5.072-2.696,6.529-4.195c0.991-1.044,1.483-2.082,1.483-3.112c0-0.774-0.202-1.395-0.606-1.854
				c-0.403-0.462-0.931-0.691-1.578-0.691c-0.667,0-1.313,0.256-1.943,0.759c-0.846,0.67-1.557,1.678-2.133,3.032
				C238.311,131.864,237.725,133.886,237.385,135.94z"/>
		</g>
	</g>
</g>
</svg>
