<?xml version="1.0" encoding="utf-8"?>
<!-- Generator: Adobe Illustrator 16.0.3, SVG Export Plug-In . SVG Version: 6.00 Build 0)  -->
<!DOCTYPE svg PUBLIC "-//W3C//DTD SVG 1.1//EN" "http://www.w3.org/Graphics/SVG/1.1/DTD/svg11.dtd">
<svg version="1.1" id="Capa_1" xmlns="http://www.w3.org/2000/svg" xmlns:xlink="http://www.w3.org/1999/xlink" x="0px" y="0px"
	 width="307px" height="195px" viewBox="0 0 307 195" enable-background="new 0 0 307 195" xml:space="preserve">
<g>
	<path fill="#FF000D" stroke="#000000" stroke-width="0.5" stroke-miterlimit="10" d="M89.914,86.227
		c-2.943,1.381-7.565,2.617-13.867,3.711c-5.808,1.016-10.547,1.523-14.219,1.523c-2.631,0-4.519-0.404-5.664-1.211
		c-1.563-1.094-2.344-3.099-2.344-6.016l0.703-14.193c0.677-11.927,1.094-23.893,1.094-38.424c0-1.119,0.371-2.07,1.113-2.852
		c0.742-0.782,1.66-1.172,2.754-1.172c1.119,0,2.051,0.391,2.793,1.172c0.742,0.781,1.113,1.732,1.113,2.852
		c0,14.714-2.043,44.58-0.405,44.887c7.012,1.314,12.602,2.164,24.389,2.145c0.461-0.001,0.859-0.195,1.25-0.195
		c1.119,0,2.057,0.443,2.813,1.328c0.65,0.808,0.977,1.732,0.977,2.773C92.414,84.222,91.58,85.446,89.914,86.227z"/>
	<path fill="#FF000D" stroke="#000000" stroke-width="0.5" stroke-miterlimit="10" d="M114.902,60.101
		c2.72,0.547,12.092,1.479,14.555,3.479l-12.445-20.105c0,0-7.045,33.963-7.723,36.307c-1.771,6.146-3.854,9.219-6.25,9.219
		c-1.041,0-1.967-0.378-2.773-1.133c-0.806-0.755-1.211-1.692-1.211-2.813c0-0.703,0.377-2.109,1.133-4.219l8.047-33.32
		l2.461-13.125c0.756-2.864,2.162-4.297,4.219-4.297c1.51,0,5.352,4.936,11.523,14.805c11.941,19.081,19.646,32.477,20.313,39.883
		c0.1,1.116-0.41,2.058-1.23,2.813c-0.82,0.755-1.752,1.133-2.793,1.133c-1.432,0-2.564-0.729-3.398-2.188
		c-3.15-6.563-5.957-9.726-9.285-13.205l-9.824-9.216L114.902,60.101z"/>
	<path fill="#FF000D" stroke="#000000" stroke-width="0.5" stroke-miterlimit="10" d="M189.68,36.813l0.195,4.648
		c0,19.375-1.289,33.477-3.867,42.305c-1.719,5.833-4.727,8.75-9.023,8.75c-4.528,0-9.063-0.837-13.898-3.516
		c-5.121-2.835-8.125-2.286-8.125-7c0-3.203,1.313-4.805,3.943-4.805c2.632,0,6.226,2.498,9.299,4.633
		c2.939,2.031,6.15,2.641,8.781,2.641c2.138,0,3.619-6.549,4.453-19.648c0.394-6.197,0.586-13.984,0.586-23.359
		c0-0.729-0.063-2.135-0.192-4.219l-2.386,0.039c-1.016,0-2.547-0.032-4.59-0.098c-2.045-0.064-3.588-0.098-4.629-0.098
		c-1.146,0-2.106-0.364-2.891-1.094c-0.781-0.729-1.172-1.719-1.172-2.969c0-2.682,1.809-4.023,5.43-4.023
		c0.885,0,2.199,0.039,3.945,0.117c1.744,0.078,3.047,0.117,3.906,0.117c1.641,0,6.628-0.098,9.896-0.293L189.68,36.813z"/>
	<path fill="#FF000D" stroke="#000000" stroke-width="0.5" stroke-miterlimit="10" d="M236.104,49.123
		c9.039-18.688,8.404-17.385,9.746-20.185c0.729-1.771,1.939-2.656,3.633-2.656c1.041,0,1.976,0.365,2.793,1.094
		c0.82,0.729,1.23,1.667,1.23,2.813c0,1.444-23.586,55.938-23.586,55.938c-0.859,1.51-4.643,13.507-5.921,14.208
		c-10.088,5.526-167.833,4.754-168.667,4c-0.834-0.756,162.667-9.356,164-12.873c0.313-0.827,11.564-31.125,11.564-31.125
		c-4.662-6.016-22.873-26.828-23.523-28c-0.391-0.703-0.586-1.406-0.586-2.109c0-1.119,0.41-2.063,1.23-2.832
		c0.817-0.768,1.752-1.152,2.793-1.152c1.272,0,2.344,0.612,3.203,1.836L236.104,49.123z"/>
</g>
<g>
	<path fill="#0600FF" stroke="#FF0000" stroke-width="0.5" stroke-miterlimit="10" d="M21.552,66.661
		c1.501,2.245,3.351,5.721,5.549,10.43c2.6,5.53,4.383,9.145,5.348,10.841c0.965,1.697,1.448,3.56,1.448,5.584
		c0,2.027-0.362,3.806-1.085,5.339c-0.724,1.533-1.568,2.299-2.534,2.299c-0.751,0-1.501-0.574-2.251-1.725
		c-1.073-1.588-3.365-6.133-6.876-13.635c-2.681-5.749-5.268-9.609-7.761-11.58c-2.038-1.533-3.056-3.805-3.056-6.817
		c0-2.737,0.925-5.01,2.774-6.817c2.493-2.464,5.228-6.898,8.203-13.305c4.155-8.87,6.628-13.975,7.419-15.316
		c0.79-1.341,1.588-2.012,2.393-2.012c0.965,0,1.815,0.753,2.553,2.258c0.737,1.506,1.106,3.272,1.106,5.298
		c0,1.861-0.402,3.613-1.206,5.256C31.002,48.347,26.994,56.313,21.552,66.661z"/>
	<path fill="#0600FF" stroke="#FF0000" stroke-width="0.5" stroke-miterlimit="10" d="M257.322,112.455
		c-0.668-0.131-1.2-0.723-1.598-1.768c-0.396-1.047-0.519-2.273-0.356-3.679c0.067-0.604,0.205-1.235,0.409-1.895
		c2.332-7.873,6.317-19.088,11.959-33.651c5.639-14.562,9.636-25.796,11.992-33.701c3.902-13.104,6.455-19.479,7.648-19.126
		c0.663,0.17,1.189,0.788,1.588,1.854c0.396,1.066,0.518,2.282,0.359,3.646c-0.102,0.873-0.316,1.896-0.653,3.069l-4.788,14.866
		c-2.005,6.774-4.646,14.525-7.927,23.256l-8.574,22.374l-7.487,21.831C259.154,111.675,258.296,112.648,257.322,112.455z"/>
	<path fill="#0600FF" stroke="#FF0000" stroke-width="0.5" stroke-miterlimit="10" d="M297.001,64.936
		c0,1.972-0.481,3.915-1.446,5.832c-6.201,12.101-12.703,22.721-19.503,31.865c-0.731,0.986-1.422,1.479-2.071,1.479
		c-0.938,0-1.754-0.778-2.441-2.342c-0.688-1.561-1.036-3.324-1.036-5.294c0-2.188,0.509-4.106,1.522-5.749l15.166-24.309
		c-2.317-3.23-5.188-8.185-8.6-14.866c-4.17-8.267-6.254-13.988-6.254-17.164c0-1.972,0.364-3.697,1.096-5.174
		c0.729-1.479,1.563-2.218,2.5-2.218c0.965,0,1.838,0.931,2.619,2.793c5.94,13.961,11.321,23.57,16.143,28.827
		C296.232,60.255,297.001,62.363,297.001,64.936z"/>
</g>
<g>
	<path fill="#0600FF" stroke="#FF0000" stroke-width="0.5" stroke-miterlimit="10" d="M45.541,148.195
		c0.732,1.336,1.099,2.386,1.099,3.15c0,0.534-0.065,1.342-0.195,2.414c-0.13,1.074-0.195,1.883-0.195,2.42
		c0,1.364,0.317,2.93,0.952,4.688c0.797,2.197,1.758,3.296,2.881,3.296c1.334,0,2.189,0.063,2.563,0.194
		c0.83,0.274,1.245,0.953,1.245,2.024c0,1.025-0.415,1.709-1.245,2.054c-0.505,0.192-1.359,0.293-2.563,0.293
		c-2.621,0-4.745-1.498-6.372-4.492c-1.351-2.49-2.026-5.176-2.026-8.057c0-0.439,0.065-1.106,0.195-2.005
		c0.13-0.896,0.195-1.563,0.195-2.002c0-1.334-0.769-2.551-2.307-3.647c-1.538-1.1-2.307-2.016-2.307-2.746
		c0-0.846,0.667-1.889,2.002-3.125c1.204-1.123,2.213-1.799,3.027-2.026v-0.685l-0.073-4.857l-0.122-4.857
		c0-5.145,1.619-8.424,4.858-9.84c1.123-0.472,2.197-0.707,3.223-0.707c0.911,0,1.758,0.219,2.539,0.658
		c0.944,0.521,1.416,1.205,1.416,2.051c0,0.879-0.578,1.449-1.733,1.709c-1.091,0.146-1.913,0.229-2.466,0.244
		c-2.279,0.244-3.418,1.971-3.418,5.176c0,0.701,0.053,2.36,0.159,4.98c0.105,2.621,0.159,4.281,0.159,4.98
		c0,0.977-0.334,2.074-1.001,3.295c-0.7,1.287-1.498,2.146-2.393,2.589C44.287,146.098,44.922,147.041,45.541,148.195z"/>
	<path fill="#0600FF" stroke="#FF0000" stroke-width="0.5" stroke-miterlimit="10" d="M253.766,145.364
		c-0.896-0.439-1.691-1.302-2.394-2.589c-0.668-1.221-1-2.318-1-3.295c0-0.699,0.053-2.359,0.157-4.98
		c0.104-2.62,0.158-4.279,0.158-4.98c0-3.205-1.141-4.932-3.418-5.176c-0.555-0.016-1.375-0.098-2.465-0.244
		c-1.156-0.26-1.734-0.83-1.734-1.709c0-0.846,0.474-1.529,1.416-2.051c0.781-0.439,1.628-0.658,2.539-0.658
		c1.023,0,2.101,0.235,3.224,0.707c3.237,1.416,4.858,4.695,4.858,9.84l-0.123,4.857l-0.071,4.857v0.685
		c0.813,0.228,1.821,0.903,3.026,2.026c1.334,1.236,2.002,2.279,2.002,3.125c0,0.729-0.772,1.646-2.319,2.746
		c-1.547,1.1-2.317,2.313-2.317,3.647c0,0.438,0.067,1.106,0.207,2.002c0.139,0.896,0.207,1.563,0.207,2.005
		c0,2.881-0.677,5.563-2.025,8.057c-1.629,2.994-3.752,4.492-6.371,4.492c-1.205,0-2.061-0.101-2.563-0.293
		c-0.827-0.345-1.243-1.025-1.243-2.054c0-1.071,0.416-1.75,1.243-2.024c0.373-0.131,1.229-0.194,2.563-0.194
		c1.121,0,2.084-1.099,2.881-3.296c0.635-1.758,0.953-3.32,0.953-4.688c0-0.537-0.066-1.346-0.195-2.42
		c-0.131-1.072-0.193-1.88-0.193-2.417c0-0.765,0.363-1.813,1.099-3.147C252.479,147.041,253.114,146.098,253.766,145.364z"/>
</g>
<g>
	<g enable-background="new    ">
		<path fill="#FF0000" d="M86.361,136.111h-1.294c0.13-0.83,0.195-1.489,0.195-1.979c0-0.65-0.273-1.078-0.819-1.281
			s-2.604-0.306-6.171-0.306l-3.568,0.024l-2.685,10.767h5.046c1.593,0,2.572-0.118,2.938-0.354c0.366-0.235,0.63-0.825,0.792-1.771
			h1.392c-0.521,1.97-0.985,4.136-1.392,6.494H79.55c0.081-0.765,0.122-1.358,0.122-1.782c0-0.179-0.114-0.398-0.342-0.658
			c-0.114-0.131-0.326-0.221-0.635-0.27c-0.44-0.081-1.124-0.122-2.052-0.122h-5.008c-1.443,5.526-2.943,9.858-4.5,12.997
			c1.514-0.479,2.858-0.717,4.031-0.717c1.954,0,4.349,0.31,7.183,0.928c1.499,0.342,2.516,0.514,3.054,0.514
			c0.716,0,1.294-0.179,1.734-0.535c0.439-0.356,0.66-0.762,0.66-1.215c0-0.261-0.111-0.682-0.333-1.265
			c-0.137-0.405-0.205-0.786-0.205-1.144c0-0.373,0.15-0.705,0.452-0.996c0.301-0.291,0.663-0.438,1.086-0.438
			c0.504,0,0.923,0.195,1.257,0.586c0.333,0.392,0.5,0.912,0.5,1.563c0,1.384-0.607,2.597-1.82,3.638s-2.814,1.563-4.801,1.563
			c-1.042,0-2.362-0.09-3.958-0.27c-3.502-0.391-6.173-0.586-8.014-0.586c-2.411,0-5.229,0.195-8.454,0.586l0.386-1.363
			c1.931-0.531,3.069-0.924,3.413-1.174c0.344-0.25,0.63-0.617,0.859-1.102c0.78-1.545,1.792-4.643,3.034-9.291
			c1.243-4.65,2.506-9.562,3.791-14.731c-1.956,0-3.805,0.464-5.549,1.39c-1.744,0.927-3.104,2.133-4.082,3.621
			c-0.978,1.486-1.466,3.051-1.466,4.691c0,0.699,0.069,1.309,0.208,1.828c0.138,0.521,0.452,1.252,0.94,2.193
			c0.309,0.569,0.464,1.033,0.464,1.391s-0.15,0.675-0.449,0.951c-0.299,0.275-0.667,0.414-1.104,0.414
			c-0.631,0-1.132-0.317-1.504-0.952c-0.55-0.929-0.825-2.188-0.825-3.784c0-3.418,1.294-6.484,3.882-9.204
			c2.588-2.718,6.355-4.077,11.304-4.077h8.374c2.897,0,5.037-0.187,6.421-0.562C86.955,133.039,86.54,134.968,86.361,136.111z"/>
		<path fill="#FF0000" d="M90.316,144.705l-0.83-0.854c2.085-1.996,3.747-3.32,4.985-3.976c1.238-0.653,2.296-0.981,3.176-0.981
			c0.342,0,0.611,0.073,0.806,0.221c0.195,0.146,0.293,0.316,0.293,0.513c0,0.146-0.041,0.407-0.122,0.781l-1.101,4.913
			c1.657-1.842,3.737-3.561,6.239-5.156c1.333-0.831,2.429-1.246,3.291-1.246c0.634,0,1.129,0.204,1.486,0.609
			c0.357,0.408,0.537,0.994,0.537,1.759c0,0.505-0.073,1.073-0.219,1.709c-0.259,1.06-0.94,3.36-2.043,6.909
			c-1.038,3.32-1.557,5.525-1.557,6.615c0,0.334,0.049,0.584,0.146,0.752c0.097,0.166,0.236,0.25,0.415,0.25
			c0.472,0,1.212-0.455,2.222-1.367c0.716-0.65,1.432-1.254,2.148-1.807l0.61,0.879c-1.498,1.651-3.052,2.979-4.663,3.983
			c-1.025,0.647-1.872,0.972-2.539,0.972c-0.619,0-1.099-0.224-1.44-0.672c-0.342-0.447-0.513-1.175-0.513-2.185
			c0-1.448,0.903-5.054,2.71-10.815c0.553-2.051,0.83-3.246,0.83-3.589c0-0.504-0.301-0.757-0.903-0.757
			c-0.651,0-1.489,0.343-2.515,1.027c-1.53,1.01-2.808,2.199-3.833,3.568c-0.651,0.881-1.196,2.281-1.636,4.204L94.32,159.5h-3.638
			c0.684-2.443,1.277-4.783,1.782-7.018l2.173-9.289c0.081-0.375,0.122-0.645,0.122-0.808c0-0.44-0.163-0.659-0.488-0.659
			c-0.261,0-0.635,0.172-1.123,0.517C92.139,142.916,91.195,143.736,90.316,144.705z"/>
		<path fill="#FF0000" d="M119.417,135.208l3.876-1.487l-1.754,6.834h5.056l-0.391,1.733h-5.06l-2.129,8.183
			c-0.676,2.455-1.014,4.163-1.014,5.123c0,0.439,0.093,0.758,0.281,0.952c0.187,0.195,0.443,0.293,0.769,0.293
			c0.504,0,1.277-0.301,2.319-0.903c1.367-0.797,2.669-1.699,3.906-2.709l0.928,1.123c-3.564,2.686-5.949,4.33-7.153,4.932
			c-1.205,0.602-2.173,0.902-2.905,0.902c-0.603,0-1.079-0.22-1.428-0.658c-0.35-0.439-0.525-1.155-0.525-2.148
			c0-1.172,0.309-2.962,0.928-5.371l2.485-9.717h-3.955l0.439-1.732h3.959L119.417,135.208z"/>
		<path fill="#FF0000" d="M141.366,153.372l0.806,1.073c-3.988,3.794-7.406,5.688-10.254,5.688c-1.156,0-2.039-0.391-2.649-1.172
			c-0.61-0.78-0.916-2.034-0.916-3.76c0-3.481,1.058-6.949,3.174-10.4c2.376-3.922,5.216-5.884,8.521-5.884
			c1.155,0,2.039,0.289,2.649,0.866c0.61,0.577,0.916,1.372,0.916,2.381c0,1.06-0.366,2.101-1.099,3.125
			c-0.733,1.024-2.043,2.092-3.931,3.198c-0.944,0.537-2.962,1.506-6.055,2.904c-0.146,0.879-0.22,1.719-0.22,2.516
			c0,1.156,0.183,1.962,0.549,2.417c0.366,0.456,0.899,0.684,1.599,0.684c0.667,0,1.399-0.187,2.197-0.562
			C137.728,155.943,139.298,154.919,141.366,153.372z M132.821,149.832c2.62-1.172,4.59-2.434,5.908-3.784
			c0.895-0.942,1.343-1.88,1.343-2.808c0-0.699-0.183-1.258-0.549-1.672c-0.366-0.416-0.842-0.623-1.428-0.623
			c-0.603,0-1.188,0.229-1.758,0.684c-0.765,0.604-1.408,1.514-1.929,2.734C133.659,146.154,133.13,147.977,132.821,149.832z"/>
		<path fill="#FF0000" d="M150.082,159.5h-3.638l1.709-6.566c0.83-3.224,1.554-6.283,2.173-9.181c0.146-0.716,0.22-1.163,0.22-1.343
			c0-0.391-0.179-0.586-0.537-0.586c-0.244,0-0.619,0.167-1.123,0.5c-0.505,0.334-1.416,1.16-2.734,2.479l-0.757-0.854
			c1.562-1.676,3.12-2.934,4.673-3.772c1.554-0.838,2.745-1.257,3.575-1.257c0.293,0,0.525,0.068,0.695,0.208
			c0.172,0.138,0.258,0.313,0.258,0.524c0,0.213-0.107,0.776-0.322,1.692l-1.063,4.392c1.648-2.598,3.507-4.818,5.578-6.666
			c0.994-0.881,1.826-1.322,2.495-1.322c0.489,0,0.897,0.159,1.224,0.477s0.488,0.688,0.488,1.11c0,0.438-0.158,0.813-0.475,1.123
			c-0.318,0.31-1.111,0.676-2.379,1.099c-1.203,0.407-2.185,0.896-2.939,1.467c-0.758,0.568-1.586,1.439-2.488,2.612
			c-0.902,1.173-1.533,2.193-1.893,3.063c-0.359,0.871-0.905,2.894-1.64,6.066L150.082,159.5z"/>
		<path fill="#FF0000" d="M160.922,145.021l-0.953-0.977c1.481-1.773,2.955-3.084,4.42-3.931s2.734-1.271,3.81-1.271
			c0.405,0,0.728,0.102,0.964,0.305c0.234,0.205,0.354,0.502,0.354,0.893c0,0.473-0.054,0.956-0.158,1.452
			c-0.106,0.497-0.437,1.673-0.989,3.528c2.489-2.49,4.19-4.028,5.104-4.614c1.528-0.992,2.93-1.489,4.198-1.489
			c0.83,0,1.529,0.391,2.101,1.172c0.567,0.781,0.854,1.962,0.854,3.54c0,3.938-1.229,7.683-3.684,11.229
			c-2.455,3.55-5.172,5.322-8.148,5.322c-1.171,0-2.342-0.316-3.513-0.951l-2.087,8.057c-0.131,0.488-0.195,0.887-0.195,1.195
			c0,0.603,0.229,1.033,0.684,1.295c0.7,0.406,2.174,0.74,4.42,1l-0.32,1.223c-2.62-0.212-4.68-0.316-6.176-0.316
			c-1.547,0-3.549,0.104-6.006,0.316l0.315-1.221c1.237-0.131,2.137-0.473,2.698-1.025c0.562-0.554,1.013-1.538,1.354-2.954
			l4.42-18.53c0.83-3.449,1.244-5.371,1.244-5.762c0-0.423-0.203-0.635-0.609-0.635
			C164.307,141.873,162.939,142.923,160.922,145.021z M165.867,156.546c1.283,1.286,2.602,1.929,3.951,1.929
			c1.949,0,3.66-1.521,5.131-4.564c1.472-3.043,2.207-6.014,2.207-8.911c0-0.929-0.207-1.632-0.621-2.11
			c-0.414-0.48-0.971-0.722-1.668-0.722c-0.78,0-1.657,0.383-2.631,1.147c-1.512,1.188-2.664,2.367-3.461,3.539
			c-0.567,0.848-1.104,2.313-1.607,4.396L165.867,156.546z"/>
		<path fill="#FF0000" d="M187.068,159.5h-3.637l1.709-6.566c0.83-3.224,1.553-6.283,2.172-9.181
			c0.146-0.716,0.221-1.163,0.221-1.343c0-0.391-0.18-0.586-0.537-0.586c-0.244,0-0.619,0.167-1.123,0.5
			c-0.506,0.334-1.416,1.16-2.734,2.479l-0.758-0.854c1.563-1.676,3.12-2.934,4.674-3.772c1.555-0.838,2.746-1.257,3.576-1.257
			c0.293,0,0.523,0.068,0.695,0.208c0.17,0.138,0.256,0.313,0.256,0.524c0,0.213-0.107,0.776-0.321,1.692l-1.062,4.392
			c1.646-2.598,3.506-4.818,5.576-6.666c0.996-0.881,1.826-1.322,2.496-1.322c0.488,0,0.896,0.159,1.223,0.477
			c0.326,0.317,0.49,0.688,0.49,1.11c0,0.438-0.159,0.813-0.478,1.123c-0.315,0.31-1.108,0.676-2.378,1.099
			c-1.204,0.407-2.184,0.896-2.939,1.467c-0.756,0.568-1.586,1.439-2.488,2.612s-1.533,2.193-1.893,3.063
			c-0.358,0.871-0.904,2.894-1.64,6.066L187.068,159.5z"/>
		<path fill="#FF0000" d="M198.324,144.632l-1.074-0.83c1.625-1.79,3.107-3.063,4.449-3.821c1.342-0.756,2.482-1.135,3.426-1.135
			c0.521,0,0.92,0.114,1.195,0.342c0.275,0.229,0.414,0.537,0.414,0.929c0,0.473-0.527,2.475-1.582,6.006
			c-1.721,5.778-2.58,9.262-2.58,10.448c0,0.229,0.057,0.42,0.17,0.574s0.236,0.231,0.367,0.231c0.52,0,1.854-1.009,4.004-3.026
			l0.951,0.928c-2.229,2.1-3.857,3.441-4.883,4.027c-1.026,0.586-1.863,0.879-2.515,0.879c-0.569,0-1.021-0.18-1.354-0.537
			c-0.334-0.356-0.5-0.854-0.5-1.488c0-2.034,1.221-7.008,3.662-14.917c0.112-0.374,0.17-0.708,0.17-1.001
			c0-0.325-0.146-0.488-0.439-0.488c-0.325,0-0.695,0.131-1.109,0.391C200.68,142.402,199.756,143.232,198.324,144.632z
			 M207.918,128.471c0.505,0,0.92,0.166,1.246,0.5c0.324,0.334,0.488,0.762,0.488,1.281c0,0.717-0.25,1.348-0.745,1.893
			c-0.497,0.545-1.054,0.817-1.673,0.817c-0.488,0-0.896-0.171-1.221-0.513c-0.326-0.342-0.488-0.789-0.488-1.344
			c0-0.731,0.235-1.354,0.709-1.867C206.705,128.727,207.268,128.471,207.918,128.471z"/>
		<path fill="#FF0000" d="M220.248,138.968c1.447,0,2.566,0.28,3.355,0.843c0.789,0.562,1.186,1.209,1.186,1.94
			c0,0.438-0.168,0.822-0.501,1.147c-0.334,0.326-0.737,0.488-1.208,0.488c-0.311,0-0.578-0.07-0.807-0.207
			c-0.229-0.14-0.553-0.484-0.978-1.039c-0.797-1.058-1.586-1.586-2.366-1.586c-0.669,0-1.259,0.256-1.771,0.769
			c-0.514,0.512-0.77,1.149-0.77,1.913c0,0.666,0.162,1.313,0.488,1.938c0.324,0.626,1.146,1.638,2.465,3.035
			c1.807,1.919,2.711,3.739,2.711,5.462c0,1.725-0.732,3.23-2.197,4.523s-3.354,1.938-5.664,1.938c-1.938,0-3.377-0.395-4.321-1.184
			c-0.943-0.79-1.416-1.762-1.416-2.918c0-0.569,0.18-1.041,0.537-1.416c0.358-0.374,0.798-0.563,1.317-0.563
			c0.457,0,0.848,0.15,1.172,0.452c0.326,0.302,0.488,0.655,0.488,1.062c0,0.164-0.011,0.375-0.031,0.636
			c-0.012,0.212-0.018,0.391-0.018,0.537c0,0.536,0.229,0.993,0.682,1.366c0.438,0.375,1.039,0.563,1.801,0.563
			c0.875,0,1.646-0.15,2.312-0.451s1.185-0.756,1.558-1.365c0.373-0.608,0.561-1.215,0.561-1.815c0-0.586-0.176-1.171-0.525-1.757
			c-0.349-0.584-1.135-1.553-2.354-2.9c-1.693-1.886-2.539-3.697-2.539-5.438c0-1.594,0.644-2.987,1.928-4.184
			C216.626,139.564,218.262,138.968,220.248,138.968z"/>
		<path fill="#FF0000" d="M238.314,153.372l0.805,1.073c-3.987,3.794-7.405,5.688-10.254,5.688c-1.155,0-2.038-0.391-2.648-1.172
			c-0.609-0.78-0.916-2.034-0.916-3.76c0-3.481,1.059-6.949,3.174-10.4c2.377-3.922,5.217-5.884,8.521-5.884
			c1.154,0,2.038,0.289,2.648,0.866c0.609,0.577,0.916,1.372,0.916,2.381c0,1.06-0.367,2.101-1.101,3.125s-2.043,2.092-3.931,3.198
			c-0.944,0.537-2.963,1.506-6.055,2.904c-0.146,0.879-0.221,1.719-0.221,2.516c0,1.156,0.184,1.962,0.551,2.417
			c0.365,0.456,0.898,0.684,1.598,0.684c0.668,0,1.4-0.187,2.197-0.562C234.676,155.943,236.246,154.919,238.314,153.372z
			 M229.77,149.832c2.619-1.172,4.59-2.434,5.908-3.784c0.896-0.942,1.342-1.88,1.342-2.808c0-0.699-0.183-1.258-0.549-1.672
			c-0.365-0.416-0.842-0.623-1.428-0.623c-0.604,0-1.189,0.229-1.758,0.684c-0.766,0.604-1.408,1.514-1.93,2.734
			C230.607,146.154,230.078,147.977,229.77,149.832z"/>
	</g>
	<g enable-background="new    ">
		<path fill="none" stroke="#000000" stroke-width="0.5" stroke-miterlimit="10" d="M86.361,136.111h-1.294
			c0.13-0.83,0.195-1.489,0.195-1.979c0-0.649-0.273-1.077-0.819-1.28s-2.604-0.307-6.171-0.307l-3.568,0.023l-2.685,10.768h5.046
			c1.593,0,2.572-0.118,2.938-0.354c0.366-0.235,0.63-0.825,0.792-1.771h1.392c-0.521,1.971-0.985,4.137-1.392,6.494H79.55
			c0.081-0.766,0.122-1.357,0.122-1.782c0-0.179-0.114-0.397-0.342-0.657c-0.114-0.132-0.326-0.222-0.635-0.271
			c-0.44-0.081-1.124-0.122-2.052-0.122h-5.008c-1.443,5.525-2.943,9.857-4.5,12.997c1.514-0.479,2.858-0.718,4.031-0.718
			c1.954,0,4.349,0.311,7.183,0.929c1.499,0.342,2.516,0.514,3.054,0.514c0.716,0,1.294-0.179,1.734-0.534
			c0.439-0.356,0.66-0.763,0.66-1.216c0-0.261-0.111-0.682-0.333-1.265c-0.137-0.405-0.205-0.786-0.205-1.145
			c0-0.373,0.15-0.705,0.452-0.996c0.301-0.291,0.663-0.438,1.086-0.438c0.504,0,0.923,0.195,1.257,0.586
			c0.333,0.393,0.5,0.912,0.5,1.563c0,1.385-0.607,2.598-1.82,3.639s-2.814,1.563-4.801,1.563c-1.042,0-2.362-0.09-3.958-0.27
			c-3.502-0.391-6.173-0.586-8.014-0.586c-2.411,0-5.229,0.195-8.454,0.586l0.386-1.363c1.931-0.531,3.069-0.924,3.413-1.174
			c0.344-0.25,0.63-0.617,0.859-1.102c0.78-1.545,1.792-4.644,3.034-9.291c1.243-4.65,2.506-9.563,3.791-14.731
			c-1.956,0-3.805,0.464-5.549,1.39c-1.744,0.928-3.104,2.133-4.082,3.621c-0.978,1.486-1.466,3.051-1.466,4.691
			c0,0.699,0.069,1.309,0.208,1.828c0.138,0.521,0.452,1.252,0.94,2.193c0.309,0.568,0.464,1.032,0.464,1.391
			c0,0.357-0.15,0.675-0.449,0.951c-0.299,0.274-0.667,0.414-1.104,0.414c-0.631,0-1.132-0.317-1.504-0.952
			c-0.55-0.929-0.825-2.188-0.825-3.784c0-3.418,1.294-6.484,3.882-9.204c2.588-2.718,6.355-4.077,11.304-4.077h8.374
			c2.897,0,5.037-0.188,6.421-0.563C86.955,133.039,86.54,134.968,86.361,136.111z"/>
		<path fill="none" stroke="#000000" stroke-width="0.5" stroke-miterlimit="10" d="M90.316,144.705l-0.83-0.854
			c2.085-1.996,3.747-3.32,4.985-3.977c1.238-0.652,2.296-0.98,3.176-0.98c0.342,0,0.611,0.072,0.806,0.221
			c0.195,0.146,0.293,0.316,0.293,0.513c0,0.146-0.041,0.407-0.122,0.781l-1.101,4.913c1.657-1.842,3.737-3.562,6.239-5.156
			c1.333-0.831,2.429-1.246,3.291-1.246c0.634,0,1.129,0.204,1.486,0.609c0.357,0.408,0.537,0.994,0.537,1.759
			c0,0.505-0.073,1.073-0.219,1.709c-0.259,1.06-0.94,3.36-2.043,6.909c-1.038,3.32-1.557,5.525-1.557,6.615
			c0,0.334,0.049,0.584,0.146,0.752c0.097,0.166,0.236,0.25,0.415,0.25c0.472,0,1.212-0.455,2.222-1.367
			c0.716-0.65,1.432-1.254,2.148-1.807l0.61,0.879c-1.498,1.65-3.052,2.979-4.663,3.982c-1.025,0.646-1.872,0.973-2.539,0.973
			c-0.619,0-1.099-0.225-1.44-0.673c-0.342-0.446-0.513-1.175-0.513-2.185c0-1.448,0.903-5.055,2.71-10.815
			c0.553-2.051,0.83-3.245,0.83-3.589c0-0.504-0.301-0.757-0.903-0.757c-0.651,0-1.489,0.343-2.515,1.026
			c-1.53,1.011-2.808,2.199-3.833,3.568c-0.651,0.881-1.196,2.281-1.636,4.204L94.32,159.5h-3.638
			c0.684-2.443,1.277-4.783,1.782-7.018l2.173-9.289c0.081-0.375,0.122-0.646,0.122-0.809c0-0.439-0.163-0.658-0.488-0.658
			c-0.261,0-0.635,0.172-1.123,0.517C92.139,142.916,91.195,143.736,90.316,144.705z"/>
		<path fill="none" stroke="#000000" stroke-width="0.5" stroke-miterlimit="10" d="M119.417,135.208l3.876-1.487l-1.754,6.834
			h5.056l-0.391,1.733h-5.06l-2.129,8.183c-0.676,2.455-1.014,4.163-1.014,5.123c0,0.439,0.093,0.758,0.281,0.952
			c0.187,0.195,0.443,0.293,0.769,0.293c0.504,0,1.277-0.301,2.319-0.903c1.367-0.797,2.669-1.699,3.906-2.709l0.928,1.123
			c-3.564,2.687-5.949,4.33-7.153,4.933c-1.205,0.602-2.173,0.901-2.905,0.901c-0.603,0-1.079-0.22-1.428-0.658
			c-0.35-0.438-0.525-1.154-0.525-2.147c0-1.172,0.309-2.962,0.928-5.371l2.485-9.717h-3.955l0.439-1.731h3.959L119.417,135.208z"/>
		<path fill="none" stroke="#000000" stroke-width="0.5" stroke-miterlimit="10" d="M141.366,153.372l0.806,1.073
			c-3.988,3.794-7.406,5.688-10.254,5.688c-1.156,0-2.039-0.391-2.649-1.172c-0.61-0.779-0.916-2.034-0.916-3.76
			c0-3.48,1.058-6.949,3.174-10.4c2.376-3.922,5.216-5.884,8.521-5.884c1.155,0,2.039,0.289,2.649,0.866
			c0.61,0.576,0.916,1.371,0.916,2.381c0,1.061-0.366,2.102-1.099,3.125c-0.733,1.023-2.043,2.092-3.931,3.197
			c-0.944,0.537-2.962,1.507-6.055,2.904c-0.146,0.879-0.22,1.719-0.22,2.517c0,1.155,0.183,1.962,0.549,2.417
			c0.366,0.456,0.899,0.684,1.599,0.684c0.667,0,1.399-0.187,2.197-0.562C137.728,155.943,139.298,154.919,141.366,153.372z
			 M132.821,149.832c2.62-1.172,4.59-2.434,5.908-3.784c0.895-0.942,1.343-1.88,1.343-2.808c0-0.699-0.183-1.258-0.549-1.672
			c-0.366-0.416-0.842-0.623-1.428-0.623c-0.603,0-1.188,0.229-1.758,0.684c-0.765,0.604-1.408,1.514-1.929,2.734
			C133.659,146.154,133.13,147.977,132.821,149.832z"/>
		<path fill="none" stroke="#000000" stroke-width="0.5" stroke-miterlimit="10" d="M150.082,159.5h-3.638l1.709-6.566
			c0.83-3.224,1.554-6.283,2.173-9.181c0.146-0.716,0.22-1.163,0.22-1.343c0-0.391-0.179-0.586-0.537-0.586
			c-0.244,0-0.619,0.167-1.123,0.5c-0.505,0.334-1.416,1.16-2.734,2.479l-0.757-0.854c1.562-1.676,3.12-2.934,4.673-3.772
			c1.554-0.838,2.745-1.257,3.575-1.257c0.293,0,0.525,0.068,0.695,0.208c0.172,0.138,0.258,0.313,0.258,0.524
			c0,0.213-0.106,0.775-0.322,1.691l-1.063,4.393c1.648-2.598,3.507-4.818,5.578-6.666c0.994-0.881,1.826-1.322,2.495-1.322
			c0.489,0,0.897,0.159,1.224,0.477c0.327,0.318,0.488,0.688,0.488,1.11c0,0.438-0.158,0.813-0.475,1.123
			c-0.318,0.31-1.111,0.676-2.379,1.099c-1.203,0.407-2.186,0.896-2.939,1.467c-0.758,0.568-1.586,1.439-2.488,2.612
			c-0.902,1.173-1.533,2.193-1.893,3.063c-0.359,0.871-0.905,2.894-1.641,6.066L150.082,159.5z"/>
		<path fill="none" stroke="#000000" stroke-width="0.5" stroke-miterlimit="10" d="M160.922,145.021l-0.953-0.978
			c1.481-1.772,2.955-3.084,4.42-3.931c1.465-0.848,2.734-1.271,3.811-1.271c0.404,0,0.728,0.102,0.964,0.305
			c0.233,0.205,0.354,0.502,0.354,0.894c0,0.474-0.055,0.956-0.158,1.452c-0.106,0.496-0.438,1.673-0.989,3.527
			c2.489-2.49,4.19-4.027,5.104-4.613c1.527-0.992,2.93-1.489,4.197-1.489c0.83,0,1.529,0.392,2.102,1.172
			c0.566,0.781,0.854,1.962,0.854,3.54c0,3.938-1.229,7.684-3.684,11.229c-2.455,3.551-5.172,5.322-8.148,5.322
			c-1.171,0-2.342-0.315-3.513-0.951l-2.087,8.058c-0.131,0.487-0.195,0.887-0.195,1.194c0,0.604,0.229,1.033,0.684,1.295
			c0.7,0.406,2.174,0.74,4.42,1l-0.319,1.224c-2.62-0.212-4.681-0.315-6.177-0.315c-1.547,0-3.549,0.104-6.006,0.315l0.315-1.222
			c1.237-0.131,2.138-0.473,2.698-1.024c0.562-0.554,1.013-1.538,1.354-2.954l4.42-18.529c0.83-3.449,1.244-5.371,1.244-5.763
			c0-0.423-0.203-0.635-0.609-0.635C164.307,141.873,162.939,142.923,160.922,145.021z M165.867,156.546
			c1.283,1.286,2.602,1.929,3.951,1.929c1.949,0,3.66-1.521,5.131-4.563c1.472-3.043,2.207-6.015,2.207-8.911
			c0-0.93-0.207-1.632-0.621-2.109c-0.414-0.48-0.971-0.723-1.668-0.723c-0.78,0-1.657,0.383-2.631,1.146
			c-1.512,1.188-2.664,2.367-3.461,3.539c-0.567,0.849-1.104,2.313-1.607,4.396L165.867,156.546z"/>
		<path fill="none" stroke="#000000" stroke-width="0.5" stroke-miterlimit="10" d="M187.068,159.5h-3.637l1.709-6.566
			c0.83-3.224,1.553-6.283,2.172-9.181c0.146-0.716,0.221-1.163,0.221-1.343c0-0.391-0.18-0.586-0.537-0.586
			c-0.244,0-0.619,0.167-1.123,0.5c-0.506,0.334-1.416,1.16-2.734,2.479l-0.758-0.854c1.563-1.676,3.12-2.934,4.674-3.772
			c1.555-0.838,2.746-1.257,3.576-1.257c0.293,0,0.523,0.068,0.695,0.208c0.17,0.138,0.256,0.313,0.256,0.524
			c0,0.213-0.107,0.775-0.321,1.691l-1.062,4.393c1.646-2.598,3.506-4.818,5.576-6.666c0.996-0.881,1.826-1.322,2.496-1.322
			c0.487,0,0.896,0.159,1.223,0.477c0.326,0.317,0.49,0.688,0.49,1.11c0,0.438-0.159,0.813-0.479,1.123
			c-0.314,0.31-1.107,0.676-2.378,1.099c-1.204,0.407-2.185,0.896-2.938,1.467c-0.756,0.568-1.586,1.439-2.488,2.612
			s-1.533,2.193-1.893,3.063c-0.358,0.871-0.904,2.894-1.641,6.066L187.068,159.5z"/>
		<path fill="none" stroke="#000000" stroke-width="0.5" stroke-miterlimit="10" d="M198.324,144.632l-1.074-0.83
			c1.625-1.79,3.107-3.063,4.449-3.821c1.342-0.756,2.482-1.135,3.426-1.135c0.521,0,0.92,0.114,1.195,0.342
			c0.275,0.229,0.414,0.537,0.414,0.93c0,0.473-0.527,2.475-1.582,6.006c-1.721,5.777-2.58,9.262-2.58,10.447
			c0,0.229,0.057,0.421,0.17,0.574c0.113,0.154,0.236,0.231,0.367,0.231c0.52,0,1.854-1.009,4.004-3.026l0.951,0.928
			c-2.229,2.101-3.857,3.441-4.883,4.027c-1.026,0.586-1.863,0.879-2.516,0.879c-0.568,0-1.021-0.18-1.354-0.537
			c-0.334-0.355-0.5-0.854-0.5-1.487c0-2.034,1.221-7.009,3.662-14.917c0.111-0.374,0.17-0.708,0.17-1.001
			c0-0.325-0.146-0.488-0.439-0.488c-0.325,0-0.695,0.131-1.109,0.392C200.68,142.402,199.756,143.232,198.324,144.632z
			 M207.918,128.471c0.505,0,0.92,0.166,1.246,0.5c0.324,0.334,0.488,0.762,0.488,1.281c0,0.717-0.25,1.348-0.745,1.893
			c-0.497,0.545-1.054,0.817-1.673,0.817c-0.488,0-0.896-0.171-1.221-0.513c-0.326-0.342-0.488-0.789-0.488-1.344
			c0-0.731,0.234-1.354,0.709-1.867C206.705,128.727,207.268,128.471,207.918,128.471z"/>
		<path fill="none" stroke="#000000" stroke-width="0.5" stroke-miterlimit="10" d="M220.248,138.968
			c1.447,0,2.566,0.28,3.355,0.843s1.186,1.209,1.186,1.94c0,0.438-0.168,0.822-0.501,1.147c-0.334,0.326-0.737,0.488-1.208,0.488
			c-0.311,0-0.578-0.07-0.807-0.207c-0.229-0.141-0.553-0.484-0.979-1.039c-0.797-1.059-1.586-1.586-2.365-1.586
			c-0.67,0-1.26,0.256-1.771,0.769c-0.514,0.512-0.77,1.149-0.77,1.913c0,0.666,0.161,1.313,0.487,1.938
			c0.324,0.626,1.146,1.639,2.465,3.035c1.808,1.919,2.711,3.739,2.711,5.462c0,1.726-0.731,3.229-2.196,4.522
			s-3.354,1.938-5.664,1.938c-1.938,0-3.377-0.396-4.321-1.184c-0.943-0.79-1.416-1.763-1.416-2.918c0-0.569,0.18-1.041,0.537-1.416
			c0.358-0.374,0.798-0.563,1.317-0.563c0.457,0,0.848,0.15,1.172,0.452c0.326,0.302,0.487,0.655,0.487,1.062
			c0,0.164-0.011,0.375-0.03,0.637c-0.013,0.212-0.019,0.391-0.019,0.537c0,0.535,0.229,0.992,0.683,1.365
			c0.438,0.375,1.039,0.563,1.801,0.563c0.875,0,1.646-0.149,2.312-0.451c0.666-0.301,1.185-0.756,1.558-1.364
			s0.562-1.216,0.562-1.815c0-0.586-0.176-1.171-0.524-1.757c-0.35-0.584-1.136-1.553-2.354-2.9
			c-1.693-1.886-2.539-3.697-2.539-5.438c0-1.594,0.644-2.987,1.928-4.185C216.626,139.564,218.262,138.968,220.248,138.968z"/>
		<path fill="none" stroke="#000000" stroke-width="0.5" stroke-miterlimit="10" d="M238.314,153.372l0.805,1.073
			c-3.987,3.794-7.405,5.688-10.254,5.688c-1.155,0-2.038-0.391-2.648-1.172c-0.609-0.779-0.916-2.034-0.916-3.76
			c0-3.48,1.059-6.949,3.174-10.4c2.377-3.922,5.217-5.884,8.521-5.884c1.154,0,2.038,0.289,2.648,0.866
			c0.608,0.576,0.916,1.371,0.916,2.381c0,1.061-0.367,2.102-1.102,3.125s-2.043,2.092-3.932,3.197
			c-0.943,0.537-2.963,1.507-6.055,2.904c-0.146,0.879-0.221,1.719-0.221,2.517c0,1.155,0.184,1.962,0.551,2.417
			c0.365,0.456,0.898,0.684,1.598,0.684c0.668,0,1.4-0.187,2.197-0.562C234.676,155.943,236.246,154.919,238.314,153.372z
			 M229.77,149.832c2.619-1.172,4.59-2.434,5.908-3.784c0.896-0.942,1.342-1.88,1.342-2.808c0-0.699-0.183-1.258-0.549-1.672
			c-0.365-0.416-0.842-0.623-1.428-0.623c-0.604,0-1.189,0.229-1.758,0.684c-0.766,0.604-1.408,1.514-1.93,2.734
			C230.607,146.154,230.078,147.977,229.77,149.832z"/>
	</g>
</g>
</svg>
