<?xml version="1.0" encoding="utf-8"?>
<!-- Generator: Adobe Illustrator 16.0.3, SVG Export Plug-In . SVG Version: 6.00 Build 0)  -->
<!DOCTYPE svg PUBLIC "-//W3C//DTD SVG 1.1//EN" "http://www.w3.org/Graphics/SVG/1.1/DTD/svg11.dtd">
<svg version="1.1" xmlns="http://www.w3.org/2000/svg" xmlns:xlink="http://www.w3.org/1999/xlink" x="0px" y="0px" width="32px"
	 height="32px" viewBox="0 0 32 32" enable-background="new 0 0 32 32" xml:space="preserve">
<g id="Capa_1" display="none">
	<g display="inline">
		<g id="Capa_2">
			<g>
				<path stroke="#000000" stroke-width="0.0948" stroke-miterlimit="10" d="M13.439,16.994c0.734,0,1.431,0.099,1.821,0.015
					c-0.163-2.12-0.244-3.877-0.244-5.272l0.005-0.679c-0.117,0.254-0.38,0.804-0.787,1.648c-0.737,1.539-1.277,2.883-1.622,4.03
					l-0.601,1.766c-0.446,1.418-0.669,2.52-0.669,3.298c0,0.229,0.051,0.452,0.154,0.671c-0.084,0.049-0.276,0.165-0.574,0.354
					c-0.138,0.084-0.269,0.126-0.393,0.126c-0.248,0-0.372-0.202-0.372-0.604c0-0.841,0.306-2.121,0.919-3.843l0.165-0.461H10.97
					c-0.581,0-1.031,0.153-1.35,0.461c0.167-1.021,0.615-1.53,1.346-1.53L11.624,17l0.144-0.363c0.556-1.424,1.407-3.341,2.551-5.75
					c0.387-0.815,0.676-1.322,0.867-1.521c0.19-0.199,0.562-0.381,1.11-0.544c-0.103,1.087-0.154,2.099-0.154,3.035
					c0,2.48,0.169,4.997,0.504,7.543c0.185,1.401,0.467,2.305,0.846,2.709c-0.333,0.562-0.618,0.842-0.855,0.842
					c-0.56,0-0.993-1.637-1.297-4.908c-0.584,0.107-1.653-0.032-2.249-0.032L13.439,16.994z"/>
				<path stroke="#000000" stroke-width="0.0948" stroke-miterlimit="10" d="M19.912,16.879l-0.469,3.969
					c-0.066,0.573-0.103,0.944-0.103,1.112c0,0.17,0.024,0.351,0.07,0.543c-0.362,0.308-0.687,0.461-0.974,0.461
					c-0.182,0-0.272-0.126-0.272-0.381c0-0.132,0.035-0.509,0.104-1.129l0.553-4.738c-0.887-0.345-1.33-0.851-1.33-1.52
					c0-0.139,0.019-0.317,0.053-0.534c0.378,0.536,0.836,0.925,1.374,1.166l0.306-2.094l1.084-0.356L19.912,16.879z M21.123,15.8
					c0.503-0.207,0.982-0.588,1.359-1.092c0.639-0.855,0.959-1.953,0.959-3.291c0-0.735-0.168-1.327-0.502-1.777
					c-0.336-0.449-0.776-0.673-1.328-0.673c-1.639,0-2.953,1.182-3.944,3.544c-0.085-0.374-0.127-0.666-0.127-0.877
					c0-0.911,0.476-1.759,1.422-2.545c0.948-0.787,1.974-1.18,3.077-1.18c1.674,0,2.512,1.061,2.512,3.183
					c0,1.55-0.436,2.903-1.305,4.06c-0.624,0.831-1.646,1.495-2.42,1.73L21.123,15.8z"/>
				<path stroke="#000000" stroke-width="0.0948" stroke-miterlimit="10" d="M27.225,17.096l-0.095,0.742
					c-0.114,0.967-0.171,1.651-0.171,2.055c0,0.805,0.456,1.205,1.371,1.205c0.906,0,1.706-0.273,2.396-0.822
					c-0.158,0.906-0.422,1.464-0.791,1.675c-0.224,0.126-0.611,0.259-1.164,0.396c-0.555,0.137-0.979,0.204-1.275,0.204
					c-1.158,0-1.738-0.657-1.738-1.967c0-0.351,0.15-1.636,0.264-2.632L27.225,17.096z M26.283,15.51h-0.079
					c-0.358,0-0.705,0.134-1.042,0.399c0.193-0.652,0.355-1.069,0.48-1.25c0.125-0.181,0.324-0.272,0.599-0.272h0.175l0.244-1.747
					l1.173-0.812l-0.304,2.559h1.101c0.769,0,1.381-0.166,1.839-0.499c-0.242,0.767-0.457,1.229-0.645,1.386
					c-0.188,0.157-0.629,0.235-1.321,0.235h-1.101L26.283,15.51L26.283,15.51z M26.938,9.922h-0.153
					c-0.656,0-1.265,0.356-1.823,1.068c0.18-0.966,0.42-1.589,0.729-1.866c0.24-0.211,0.982-0.317,2.229-0.317h1.585
					c0.997,0,1.812-0.168,2.433-0.506c-0.278,0.754-0.527,1.213-0.744,1.376c-0.217,0.163-0.69,0.245-1.414,0.245h-1.717H26.938z"/>
			</g>
			<g>
				<path stroke="#000000" stroke-width="0.0948" stroke-miterlimit="10" d="M6.496,13.787c-0.151,0.531-0.246,1.104-0.286,1.719
					c0.009-0.032,0.534-1.827,0.996-3.2C6.913,12.673,6.674,13.162,6.496,13.787z"/>
				<path stroke="#000000" stroke-width="0.0948" stroke-miterlimit="10" d="M6.713,8.77C6.774,8.672,6.998,8.526,7.15,8.461
					C6.789,8.566,6.374,9.05,6.374,9.05s-0.56,0.704-0.856,1.468c-0.069,0.179-0.119,0.36-0.173,0.529
					c0.137-0.374,0.284-0.724,0.435-1.035C6.153,9.239,6.713,8.77,6.713,8.77z"/>
				<path stroke="#000000" stroke-width="0.0948" stroke-miterlimit="10" d="M6.446,18.229c0.171,0.569,0.404,1.012,0.696,1.32
					c0.069,0.073,0.142,0.137,0.218,0.192c-0.629-2.218-1.143-4.201-1.15-4.23c-0.014,0.217-0.022,0.439-0.022,0.667
					C6.188,16.975,6.273,17.658,6.446,18.229z"/>
				<path stroke="#000000" stroke-width="0.0948" stroke-miterlimit="10" d="M4.852,12.727c0.027-0.124,0.057-0.249,0.088-0.371
					c-0.124-0.536-0.29-1.166-0.498-1.892C4.232,9.738,4.049,9.063,3.895,8.44c0,0-3.464-3.756-3.918-3.771
					c0.963,3.158,3.405,10.61,3.405,10.61C3.058,16.225,0.412,25.425,0,26.484c0.518-0.014,3.001-3.391,3.001-3.391
					c0.239-0.744,0.516-1.57,0.83-2.479c0.313-0.909,0.539-1.613,0.676-2.114c0.04,0.16,0.083,0.326,0.125,0.493
					c-0.153-0.85-0.231-1.793-0.231-2.837C4.401,14.892,4.629,13.737,4.852,12.727z"/>
				<path stroke="#000000" stroke-width="0.0948" stroke-miterlimit="10" d="M5.475,21.375c-0.199-0.41-0.383-0.809-0.537-1.234
					c0.069,0.256,0.211,0.53,0.294,0.719c0.015,0.033,0.806,1.526,0.806,1.526s0.534,0.69,0.96,0.689
					c-0.213-0.065-0.419-0.162-0.614-0.308C6.157,22.602,5.886,22.221,5.475,21.375z"/>
				<path stroke="#000000" stroke-width="0.0948" stroke-miterlimit="10" d="M8.227,20.018c-0.329,0-0.618-0.093-0.867-0.275
					c0.323,1.136,0.675,2.331,1.006,3.354c-0.563,0.098-1.223-0.021-1.252-0.021c-0.039,0-0.076,0.002-0.115,0.002
					c0.281,0.087,0.629,0.116,0.934,0.116c0.556,0,0.774-0.109,1.482-0.334c0.02-0.404,0.579-3.018,0.619-3.43
					c-0.417,0.23-0.764,0.387-1.04,0.467C8.716,19.977,8.461,20.018,8.227,20.018z"/>
				<path stroke="#000000" stroke-width="0.0948" stroke-miterlimit="10" d="M6.209,15.511c0-0.001,0-0.002,0-0.005l-0.001,0.003
					L6.209,15.511z"/>
				<path stroke="#000000" stroke-width="0.0948" stroke-miterlimit="10" d="M5.344,11.047c-0.15,0.411-0.289,0.852-0.404,1.309
					c0,0.001,0,0.002,0,0.003C5.047,11.989,5.181,11.552,5.344,11.047z"/>
				<path stroke="#000000" stroke-width="0.0948" stroke-miterlimit="10" d="M4.649,19.093c0.071,0.38,0.171,0.722,0.289,1.048
					c-0.109-0.396-0.211-0.781-0.306-1.146C4.639,19.025,4.643,19.063,4.649,19.093z"/>
				<path stroke="#000000" stroke-width="0.0948" stroke-miterlimit="10" d="M8.592,8.44c-0.253,0.737-0.63,1.782-1.131,3.136
					c-0.079,0.216-0.166,0.466-0.255,0.729C7.25,12.25,7.292,12.19,7.339,12.14c0.356-0.377,0.759-0.566,1.205-0.566
					c0.205,0,0.428,0.035,0.667,0.104c0.24,0.071,0.554,0.204,0.939,0.399L9.535,8.733C8.815,8.467,8.75,8.335,8.261,8.335
					c-0.373,0-0.756-0.026-1.111,0.126c0.075,0,0.164-0.077,0.241-0.077C7.676,8.384,8.092,8.333,8.592,8.44z"/>
			</g>
		</g>
	</g>
</g>
<g id="Capa_2_1_">
	<g>
		<g id="Capa_1_1_">
			<g>
				<path stroke="#000000" stroke-width="0.2656" stroke-miterlimit="10" d="M18.148,13.919c-0.317,0.702-0.514,1.459-0.598,2.271
					c0.019-0.044,1.117-2.415,2.084-4.229C19.021,12.448,18.52,13.095,18.148,13.919z"/>
				<path stroke="#000000" stroke-width="0.2656" stroke-miterlimit="10" d="M18.605,7.29c0.123-0.129,0.596-0.322,0.91-0.409
					c-0.754,0.14-1.625,0.778-1.625,0.778s-1.168,0.931-1.788,1.94c-0.149,0.235-0.248,0.476-0.362,0.7
					c0.285-0.495,0.594-0.957,0.908-1.369C17.433,7.91,18.605,7.29,18.605,7.29z"/>
				<path stroke="#000000" stroke-width="0.2656" stroke-miterlimit="10" d="M18.042,19.791c0.362,0.752,0.847,1.333,1.46,1.745
					c0.144,0.094,0.293,0.179,0.455,0.25c-1.319-2.927-2.391-5.551-2.408-5.588c-0.027,0.286-0.045,0.58-0.045,0.881
					C17.504,18.131,17.686,19.036,18.042,19.791z"/>
				<path stroke="#000000" stroke-width="0.2656" stroke-miterlimit="10" d="M14.714,12.52c0.055-0.166,0.116-0.329,0.182-0.491
					c-0.26-0.708-0.606-1.542-1.044-2.5c-0.438-0.961-0.818-1.852-1.142-2.674c0,0-7.246-4.964-8.196-4.983
					c2.017,4.172,7.123,14.021,7.123,14.021c-0.678,1.247-6.212,13.409-7.075,14.808c1.085-0.018,6.279-4.479,6.279-4.479
					c0.501-0.983,1.079-2.077,1.736-3.276c0.654-1.201,1.126-2.134,1.414-2.796c0.084,0.212,0.173,0.433,0.262,0.653
					c-0.32-1.123-0.484-2.37-0.484-3.749C13.768,15.38,14.245,13.855,14.714,12.52z"/>
				<path stroke="#000000" stroke-width="0.2656" stroke-miterlimit="10" d="M16.014,23.946c-0.416-0.542-0.801-1.065-1.125-1.631
					c0.147,0.337,0.443,0.702,0.615,0.948c0.033,0.048,1.688,2.018,1.688,2.018s1.115,0.915,2.01,0.915
					c-0.445-0.089-0.875-0.217-1.286-0.407C17.441,25.568,16.873,25.065,16.014,23.946z"/>
				<path stroke="#000000" stroke-width="0.2656" stroke-miterlimit="10" d="M21.769,22.15c-0.688,0-1.291-0.122-1.812-0.364
					c0.674,1.501,1.41,3.08,2.099,4.435c-1.176,0.128-2.554-0.026-2.615-0.028c-0.083-0.002-0.161,0.004-0.239,0.004
					c0.585,0.112,1.313,0.152,1.951,0.152c1.163,0,1.619-0.146,3.102-0.442c0.035-0.535,1.21-3.986,1.294-4.532
					c-0.875,0.307-1.601,0.513-2.176,0.618S22.26,22.15,21.769,22.15z"/>
				<path stroke="#000000" stroke-width="0.2656" stroke-miterlimit="10" d="M17.549,16.198c0-0.003,0.002-0.004,0.002-0.008
					c0,0.002-0.002,0.005-0.002,0.005V16.198z"/>
				<path stroke="#000000" stroke-width="0.2656" stroke-miterlimit="10" d="M15.74,10.3c-0.315,0.542-0.605,1.125-0.844,1.729
					c0,0.001,0,0.002,0,0.004C15.117,11.543,15.401,10.966,15.74,10.3z"/>
				<path stroke="#000000" stroke-width="0.2656" stroke-miterlimit="10" d="M14.285,20.933c0.152,0.501,0.361,0.952,0.608,1.383
					c-0.229-0.525-0.443-1.033-0.641-1.514C14.264,20.845,14.273,20.891,14.285,20.933z"/>
				<path stroke="#000000" stroke-width="0.2656" stroke-miterlimit="10" d="M22.533,6.854c-0.53,0.974-1.318,2.355-2.365,4.143
					c-0.166,0.286-0.348,0.617-0.533,0.964c0.09-0.072,0.179-0.153,0.276-0.218c0.745-0.499,1.588-0.748,2.522-0.748
					c0.429,0,0.893,0.046,1.396,0.138c0.498,0.093,1.155,0.269,1.965,0.527l-1.289-4.42c-1.506-0.351-1.642-0.527-2.663-0.527
					c-0.782,0-1.584-0.033-2.326,0.167c0.156,0,0.346-0.102,0.506-0.102C20.617,6.78,21.489,6.713,22.533,6.854z"/>
			</g>
			<g display="none">
				<g display="inline">
					<path stroke="#13007C" stroke-width="0.1306" stroke-miterlimit="10" d="M14.545,41.021c0.42,0,0.819,0.07,1.04,0.011
						c-0.094-1.437-0.14-2.626-0.14-3.57l0.005-0.463c-0.067,0.172-0.218,0.547-0.45,1.119c-0.422,1.042-0.729,1.952-0.927,2.73
						l-0.343,1.199c-0.256,0.958-0.383,1.704-0.383,2.231c0,0.156,0.029,0.308,0.089,0.455c-0.05,0.032-0.158,0.111-0.329,0.239
						c-0.078,0.056-0.154,0.086-0.225,0.086c-0.142,0-0.213-0.138-0.213-0.413c0-0.567,0.176-1.435,0.526-2.601l0.094-0.313h-0.155
						c-0.332,0-0.589,0.103-0.771,0.313c0.096-0.692,0.351-1.037,0.768-1.037l0.376,0.018l0.083-0.244
						c0.317-0.967,0.803-2.267,1.458-3.898c0.219-0.553,0.386-0.896,0.494-1.032c0.11-0.134,0.321-0.257,0.634-0.367
						c-0.059,0.734-0.088,1.423-0.088,2.058c0,1.682,0.098,3.384,0.29,5.11c0.105,0.95,0.266,1.563,0.481,1.836
						c-0.19,0.38-0.354,0.571-0.49,0.571c-0.317,0-0.565-1.109-0.74-3.327c-0.332,0.074-0.943-0.021-1.283-0.021L14.545,41.021z"/>
					<path stroke="#13007C" stroke-width="0.1306" stroke-miterlimit="10" d="M18.243,40.946l-0.269,2.69
						c-0.037,0.387-0.058,0.639-0.058,0.752c0,0.115,0.012,0.237,0.038,0.367c-0.206,0.209-0.39,0.313-0.555,0.313
						c-0.104,0-0.155-0.086-0.155-0.26c0-0.088,0.019-0.343,0.06-0.765l0.315-3.209c-0.507-0.234-0.76-0.576-0.76-1.031
						c0-0.092,0.009-0.214,0.03-0.36c0.217,0.364,0.477,0.626,0.786,0.79l0.172-1.418l0.621-0.243L18.243,40.946z M18.934,40.215
						c0.287-0.141,0.561-0.399,0.776-0.741c0.365-0.578,0.548-1.323,0.548-2.229c0-0.5-0.096-0.9-0.287-1.204
						s-0.442-0.459-0.757-0.459c-0.937,0-1.688,0.803-2.254,2.405c-0.048-0.256-0.072-0.454-0.072-0.597
						c0-0.617,0.271-1.191,0.812-1.725c0.54-0.532,1.129-0.798,1.758-0.798c0.956,0,1.435,0.718,1.435,2.155
						c0,1.052-0.248,1.966-0.744,2.751c-0.356,0.563-0.941,1.015-1.385,1.174L18.934,40.215z"/>
					<path stroke="#13007C" stroke-width="0.1306" stroke-miterlimit="10" d="M22.419,41.094l-0.054,0.502
						c-0.065,0.653-0.099,1.117-0.099,1.393c0,0.544,0.263,0.817,0.783,0.817c0.519,0,0.975-0.188,1.37-0.558
						c-0.093,0.613-0.242,0.989-0.453,1.133c-0.128,0.086-0.349,0.176-0.665,0.268c-0.315,0.092-0.559,0.138-0.728,0.138
						c-0.663,0-0.993-0.443-0.993-1.331c0-0.239,0.087-1.107,0.151-1.784L22.419,41.094z M21.882,40.019h-0.046
						c-0.205,0-0.403,0.088-0.595,0.269c0.113-0.44,0.203-0.724,0.275-0.846c0.071-0.123,0.186-0.184,0.343-0.184h0.098l0.141-1.183
						l0.67-0.553l-0.174,1.735h0.628c0.438,0,0.788-0.113,1.051-0.339c-0.138,0.521-0.263,0.834-0.368,0.938
						c-0.108,0.108-0.359,0.162-0.756,0.162h-0.628H21.882z M22.256,36.23h-0.09c-0.374,0-0.721,0.242-1.04,0.723
						c0.1-0.652,0.239-1.075,0.416-1.263c0.139-0.143,0.562-0.214,1.271-0.214h0.905c0.57,0,1.033-0.116,1.39-0.343
						c-0.158,0.51-0.3,0.821-0.425,0.931c-0.124,0.112-0.395,0.166-0.809,0.166h-0.979H22.256z"/>
				</g>
				<g display="inline">
					<path stroke="#13007C" stroke-width="0.1306" stroke-miterlimit="10" d="M10.579,38.851c-0.086,0.358-0.14,0.747-0.163,1.164
						c0.004-0.022,0.304-1.239,0.569-2.168C10.816,38.095,10.681,38.426,10.579,38.851z"/>
					<path stroke="#13007C" stroke-width="0.1306" stroke-miterlimit="10" d="M10.703,35.451c0.035-0.066,0.163-0.166,0.249-0.211
						c-0.207,0.072-0.443,0.399-0.443,0.399s-0.32,0.478-0.49,0.996c-0.04,0.12-0.067,0.242-0.098,0.359
						c0.077-0.256,0.162-0.491,0.248-0.704C10.384,35.77,10.703,35.451,10.703,35.451z"/>
					<path stroke="#13007C" stroke-width="0.1306" stroke-miterlimit="10" d="M10.55,41.86c0.1,0.387,0.231,0.685,0.399,0.895
						c0.04,0.05,0.081,0.092,0.124,0.129c-0.36-1.5-0.653-2.847-0.658-2.865c-0.008,0.146-0.012,0.299-0.012,0.452
						C10.403,41.013,10.452,41.476,10.55,41.86z"/>
					<path stroke="#13007C" stroke-width="0.1306" stroke-miterlimit="10" d="M9.641,38.131c0.015-0.084,0.032-0.168,0.05-0.25
						C9.62,37.518,9.525,37.089,9.406,36.6c-0.12-0.494-0.224-0.951-0.313-1.372c0,0-1.978-2.547-2.237-2.556
						c0.55,2.138,1.946,7.188,1.946,7.188c-0.186,0.641-1.697,6.877-1.932,7.594c0.294-0.011,1.714-2.297,1.714-2.297
						c0.136-0.503,0.294-1.065,0.474-1.681c0.179-0.614,0.308-1.093,0.386-1.431c0.022,0.107,0.046,0.22,0.071,0.333
						c-0.087-0.576-0.132-1.215-0.132-1.923C9.383,39.6,9.513,38.816,9.641,38.131z"/>
					<path stroke="#13007C" stroke-width="0.1306" stroke-miterlimit="10" d="M9.996,43.991c-0.113-0.277-0.218-0.547-0.307-0.835
						c0.04,0.171,0.121,0.36,0.168,0.488c0.01,0.021,0.462,1.03,0.462,1.03s0.306,0.472,0.547,0.472
						c-0.121-0.045-0.239-0.113-0.351-0.209C10.385,44.822,10.23,44.564,9.996,43.991z"/>
					<path stroke="#13007C" stroke-width="0.1306" stroke-miterlimit="10" d="M11.568,43.071c-0.188,0-0.353-0.063-0.495-0.188
						c0.183,0.769,0.386,1.581,0.573,2.273c-0.32,0.067-0.696-0.012-0.715-0.012c-0.022-0.002-0.043,0.001-0.065,0.001
						c0.16,0.057,0.359,0.078,0.534,0.078c0.317,0,0.441-0.074,0.846-0.228c0.01-0.273,0.331-2.045,0.352-2.325
						c-0.237,0.156-0.435,0.263-0.593,0.318C11.847,43.042,11.701,43.071,11.568,43.071z"/>
					<path stroke="#13007C" stroke-width="0.1306" stroke-miterlimit="10" d="M10.415,40.019c0-0.002,0.001-0.002,0.001-0.004
						L10.415,40.019L10.415,40.019z"/>
					<path stroke="#13007C" stroke-width="0.1306" stroke-miterlimit="10" d="M9.921,36.995c-0.086,0.277-0.166,0.576-0.231,0.886
						c0,0,0.001,0,0.001,0.002C9.751,37.632,9.828,37.337,9.921,36.995z"/>
					<path stroke="#13007C" stroke-width="0.1306" stroke-miterlimit="10" d="M9.523,42.447c0.042,0.255,0.099,0.487,0.165,0.709
						c-0.062-0.271-0.12-0.529-0.174-0.777C9.518,42.399,9.52,42.425,9.523,42.447z"/>
					<path stroke="#13007C" stroke-width="0.1306" stroke-miterlimit="10" d="M11.777,35.228c-0.146,0.499-0.36,1.207-0.646,2.122
						c-0.046,0.148-0.096,0.318-0.146,0.497c0.025-0.036,0.048-0.077,0.076-0.113c0.204-0.256,0.433-0.384,0.688-0.384
						c0.117,0,0.244,0.025,0.381,0.074c0.137,0.047,0.315,0.135,0.536,0.268l-0.352-2.266c-0.411-0.183-0.448-0.271-0.728-0.271
						c-0.213,0-0.432-0.016-0.635,0.085c0.043,0,0.094-0.053,0.138-0.053C11.253,35.188,11.491,35.153,11.777,35.228z"/>
				</g>
			</g>
			
				<text transform="matrix(0.907 0 0 1 5.7383 44.8828)" display="none" enable-background="new    " font-family="'ArialMT'" font-size="3.37">Web Developers</text>
		</g>
		<g id="Capa_2_2_" display="none">
			<g display="inline">
				<path stroke="#13007C" stroke-width="0.1306" stroke-miterlimit="10" d="M17.06,23.541c1.098,0,2.139,0.128,2.723,0.02
					c-0.245-2.692-0.366-4.923-0.366-6.693l0.007-0.863c-0.173,0.322-0.564,1.02-1.175,2.093c-1.102,1.956-1.91,3.662-2.423,5.119
					l-0.899,2.244c-0.666,1.801-1.001,3.198-1.001,4.186c0,0.293,0.078,0.575,0.231,0.853c-0.127,0.063-0.414,0.211-0.857,0.45
					c-0.208,0.105-0.403,0.16-0.589,0.16c-0.371,0-0.556-0.258-0.556-0.771c0-1.067,0.458-2.692,1.375-4.878l0.246-0.587H13.37
					c-0.869,0-1.542,0.196-2.019,0.587c0.249-1.296,0.919-1.943,2.01-1.943l0.986,0.034l0.214-0.459
					c0.832-1.812,2.103-4.246,3.813-7.306c0.577-1.036,1.009-1.679,1.297-1.932c0.284-0.253,0.838-0.484,1.657-0.691
					c-0.153,1.38-0.228,2.665-0.228,3.852c0,3.151,0.251,6.347,0.753,9.583c0.277,1.78,0.696,2.928,1.264,3.441
					c-0.498,0.71-0.924,1.069-1.28,1.069c-0.835,0-1.482-2.078-1.938-6.235c-0.874,0.137-2.471-0.041-3.361-0.041L17.06,23.541z"/>
				<path stroke="#13007C" stroke-width="0.1306" stroke-miterlimit="10" d="M26.734,23.397l-0.701,5.041
					c-0.101,0.728-0.15,1.199-0.15,1.413c0,0.215,0.033,0.444,0.103,0.688c-0.54,0.391-1.023,0.587-1.454,0.587
					c-0.271,0-0.409-0.162-0.409-0.482c0-0.168,0.056-0.646,0.157-1.437l0.825-6.018c-1.323-0.437-1.986-1.079-1.986-1.929
					c0-0.177,0.027-0.401,0.079-0.677c0.563,0.68,1.249,1.173,2.054,1.479l0.454-2.658l1.623-0.452L26.734,23.397z M28.545,22.028
					c0.749-0.264,1.467-0.748,2.031-1.389c0.954-1.086,1.432-2.479,1.432-4.18c0-0.933-0.249-1.686-0.749-2.255
					c-0.499-0.571-1.161-0.857-1.984-0.857c-2.449,0-4.415,1.502-5.896,4.502c-0.126-0.473-0.189-0.844-0.189-1.113
					c0-1.156,0.709-2.234,2.124-3.232c1.417-1,2.95-1.498,4.6-1.498c2.502,0,3.754,1.348,3.754,4.043
					c0,1.967-0.649,3.685-1.949,5.154c-0.932,1.057-2.46,1.898-3.618,2.196L28.545,22.028z"/>
				<path stroke="#13007C" stroke-width="0.1306" stroke-miterlimit="10" d="M37.662,23.671l-0.141,0.943
					c-0.17,1.228-0.255,2.1-0.255,2.612c0,1.02,0.684,1.528,2.049,1.528c1.356,0,2.551-0.349,3.583-1.045
					c-0.238,1.149-0.631,1.859-1.184,2.127c-0.333,0.162-0.912,0.327-1.74,0.501c-0.826,0.172-1.46,0.259-1.905,0.259
					c-1.733,0-2.6-0.832-2.6-2.494c0-0.447,0.226-2.079,0.396-3.345L37.662,23.671z M36.258,21.659h-0.119
					c-0.535,0-1.055,0.169-1.558,0.505c0.291-0.828,0.531-1.355,0.72-1.585c0.188-0.231,0.484-0.348,0.894-0.348h0.261l0.365-2.216
					l1.753-1.031l-0.453,3.248h1.644c1.148,0,2.064-0.21,2.746-0.633c-0.36,0.974-0.68,1.561-0.961,1.762
					c-0.28,0.198-0.938,0.298-1.977,0.298h-1.644H36.258L36.258,21.659z M37.234,14.562h-0.23c-0.98,0-1.888,0.453-2.726,1.358
					c0.266-1.227,0.628-2.018,1.09-2.37c0.36-0.269,1.469-0.402,3.328-0.402h2.367c1.494,0,2.708-0.215,3.641-0.645
					c-0.42,0.958-0.792,1.541-1.115,1.749c-0.327,0.207-1.031,0.31-2.115,0.31h-2.563H37.234z"/>
			</g>
			<g display="inline">
				<path stroke="#13007C" stroke-width="0.1306" stroke-miterlimit="10" d="M6.68,19.472c-0.226,0.673-0.368,1.402-0.427,2.182
					c0.014-0.042,0.798-2.32,1.488-4.063C7.304,18.055,6.947,18.676,6.68,19.472z"/>
				<path stroke="#13007C" stroke-width="0.1306" stroke-miterlimit="10" d="M7.006,13.099c0.09-0.123,0.424-0.309,0.652-0.391
					c-0.539,0.133-1.159,0.747-1.159,0.747s-0.837,0.895-1.281,1.864c-0.103,0.227-0.177,0.459-0.258,0.673
					c0.205-0.477,0.424-0.92,0.65-1.315C6.17,13.696,7.006,13.099,7.006,13.099z"/>
				<path stroke="#13007C" stroke-width="0.1306" stroke-miterlimit="10" d="M6.605,25.113c0.257,0.721,0.604,1.281,1.042,1.677
					c0.102,0.092,0.21,0.171,0.324,0.241c-0.94-2.813-1.708-5.335-1.72-5.37c-0.02,0.276-0.031,0.557-0.031,0.847
					C6.221,23.52,6.348,24.389,6.605,25.113z"/>
				<path stroke="#13007C" stroke-width="0.1306" stroke-miterlimit="10" d="M4.224,18.125c0.042-0.16,0.085-0.316,0.132-0.471
					c-0.184-0.683-0.432-1.482-0.746-2.403c-0.313-0.923-0.585-1.778-0.817-2.569c0,0-5.177-4.771-5.856-4.789
					c1.441,4.008,5.09,13.475,5.09,13.475c-0.484,1.2-4.439,12.885-5.055,14.229c0.774-0.019,4.486-4.303,4.486-4.303
					c0.358-0.946,0.772-1.995,1.24-3.15c0.469-1.156,0.805-2.05,1.011-2.688c0.06,0.206,0.123,0.414,0.188,0.627
					c-0.231-1.079-0.348-2.275-0.348-3.602C3.549,20.874,3.891,19.408,4.224,18.125z"/>
				<path stroke="#13007C" stroke-width="0.1306" stroke-miterlimit="10" d="M5.155,29.106c-0.298-0.521-0.573-1.025-0.802-1.566
					c0.104,0.323,0.314,0.674,0.438,0.911c0.023,0.043,1.206,1.94,1.206,1.94s0.799,0.876,1.435,0.876
					c-0.319-0.084-0.626-0.207-0.918-0.391C6.175,30.665,5.77,30.181,5.155,29.106z"/>
				<path stroke="#13007C" stroke-width="0.1306" stroke-miterlimit="10" d="M9.267,27.38c-0.493,0-0.923-0.115-1.295-0.349
					c0.481,1.443,1.008,2.963,1.502,4.263c-0.843,0.122-1.825-0.03-1.872-0.03c-0.058-0.001-0.113,0.002-0.171,0.004
					c0.421,0.11,0.94,0.149,1.396,0.149c0.831,0,1.156-0.142,2.213-0.425c0.031-0.515,0.867-3.833,0.926-4.355
					c-0.623,0.292-1.141,0.49-1.554,0.592C10,27.33,9.618,27.38,9.267,27.38z"/>
				<path stroke="#13007C" stroke-width="0.1306" stroke-miterlimit="10" d="M6.252,21.661c0.001-0.002,0.001-0.004,0.001-0.008
					c0,0.002-0.001,0.006-0.001,0.006L6.252,21.661z"/>
				<path stroke="#13007C" stroke-width="0.1306" stroke-miterlimit="10" d="M4.958,15.992c-0.224,0.521-0.431,1.081-0.603,1.662
					c0,0.001,0,0.003,0.001,0.003C4.515,17.188,4.715,16.632,4.958,15.992z"/>
				<path stroke="#13007C" stroke-width="0.1306" stroke-miterlimit="10" d="M3.92,26.211c0.107,0.48,0.256,0.914,0.432,1.329
					c-0.164-0.505-0.315-0.989-0.455-1.457C3.905,26.124,3.911,26.169,3.92,26.211z"/>
				<path stroke="#13007C" stroke-width="0.1306" stroke-miterlimit="10" d="M9.815,12.682c-0.38,0.936-0.944,2.262-1.691,3.979
					c-0.119,0.276-0.25,0.594-0.383,0.929c0.067-0.071,0.129-0.148,0.199-0.21c0.534-0.479,1.135-0.719,1.802-0.719
					c0.306,0,0.638,0.045,0.998,0.133c0.357,0.088,0.826,0.259,1.404,0.507l-0.92-4.248c-1.078-0.338-1.174-0.506-1.905-0.506
					c-0.558,0-1.132-0.033-1.662,0.162c0.112,0,0.245-0.099,0.361-0.099C8.445,12.609,9.067,12.544,9.815,12.682z"/>
			</g>
			<text transform="matrix(1.0403 0 0 1 -3.2207 40.4443)" display="inline" font-family="'ArialMT'" font-size="7.0056">Web Developers</text>
			<g display="inline">
			</g>
		</g>
	</g>
</g>
</svg>
