<?xml version="1.0" encoding="utf-8"?>
<!-- Generator: Adobe Illustrator 16.0.3, SVG Export Plug-In . SVG Version: 6.00 Build 0)  -->
<!DOCTYPE svg PUBLIC "-//W3C//DTD SVG 1.1//EN" "http://www.w3.org/Graphics/SVG/1.1/DTD/svg11.dtd">
<svg version="1.1" id="Capa_1" xmlns="http://www.w3.org/2000/svg" xmlns:xlink="http://www.w3.org/1999/xlink" x="0px" y="0px"
	 width="32px" height="32px" viewBox="0 0 32 32" enable-background="new 0 0 32 32" xml:space="preserve">
<g id="Capa_2_1_">
	<g>
		<g id="Capa_1_2_">
			<g display="none">
				<g display="inline">
					<path stroke="#13007C" stroke-width="0.1306" stroke-miterlimit="10" d="M14.545,41.021c0.42,0,0.819,0.069,1.04,0.011
						c-0.094-1.438-0.14-2.626-0.14-3.57l0.005-0.463c-0.067,0.172-0.218,0.547-0.45,1.119c-0.422,1.042-0.729,1.952-0.927,2.729
						l-0.343,1.199c-0.256,0.958-0.383,1.704-0.383,2.23c0,0.156,0.029,0.309,0.089,0.455c-0.05,0.033-0.158,0.111-0.329,0.24
						c-0.078,0.055-0.154,0.086-0.225,0.086c-0.142,0-0.213-0.139-0.213-0.414c0-0.566,0.176-1.435,0.526-2.601l0.094-0.313h-0.155
						c-0.332,0-0.589,0.104-0.771,0.313c0.096-0.692,0.351-1.037,0.768-1.037l0.376,0.019l0.083-0.244
						c0.317-0.967,0.803-2.268,1.458-3.898c0.219-0.553,0.386-0.896,0.494-1.031c0.11-0.135,0.321-0.258,0.634-0.367
						c-0.059,0.733-0.088,1.423-0.088,2.058c0,1.683,0.098,3.384,0.29,5.11c0.105,0.949,0.267,1.563,0.481,1.836
						c-0.19,0.38-0.354,0.57-0.49,0.57c-0.317,0-0.565-1.108-0.74-3.326c-0.332,0.074-0.943-0.021-1.283-0.021L14.545,41.021z"/>
					<path stroke="#13007C" stroke-width="0.1306" stroke-miterlimit="10" d="M18.243,40.945l-0.269,2.69
						c-0.037,0.388-0.059,0.64-0.059,0.753c0,0.114,0.012,0.236,0.038,0.366c-0.206,0.209-0.39,0.313-0.556,0.313
						c-0.104,0-0.154-0.086-0.154-0.26c0-0.089,0.02-0.344,0.061-0.766l0.314-3.209c-0.508-0.234-0.76-0.576-0.76-1.031
						c0-0.092,0.009-0.214,0.029-0.359c0.217,0.363,0.478,0.625,0.786,0.789l0.173-1.418l0.62-0.242L18.243,40.945z M18.934,40.215
						c0.287-0.141,0.562-0.398,0.776-0.74c0.365-0.578,0.548-1.324,0.548-2.229c0-0.5-0.096-0.9-0.287-1.204
						c-0.191-0.305-0.441-0.459-0.757-0.459c-0.937,0-1.688,0.803-2.254,2.404c-0.048-0.256-0.071-0.453-0.071-0.596
						c0-0.617,0.271-1.191,0.812-1.726c0.54-0.532,1.129-0.798,1.758-0.798c0.956,0,1.435,0.718,1.435,2.154
						c0,1.053-0.248,1.967-0.744,2.752c-0.355,0.563-0.94,1.015-1.385,1.174L18.934,40.215z"/>
					<path stroke="#13007C" stroke-width="0.1306" stroke-miterlimit="10" d="M22.419,41.094l-0.054,0.502
						c-0.065,0.653-0.1,1.117-0.1,1.394c0,0.544,0.264,0.817,0.783,0.817s0.975-0.188,1.37-0.559
						c-0.093,0.613-0.242,0.988-0.453,1.133c-0.128,0.086-0.349,0.176-0.665,0.268c-0.314,0.093-0.559,0.139-0.728,0.139
						c-0.663,0-0.993-0.443-0.993-1.331c0-0.239,0.087-1.106,0.15-1.784L22.419,41.094z M21.882,40.02h-0.046
						c-0.205,0-0.402,0.088-0.595,0.269c0.112-0.44,0.202-0.724,0.274-0.847c0.071-0.123,0.187-0.184,0.344-0.184h0.098l0.141-1.183
						l0.67-0.554l-0.174,1.735h0.629c0.438,0,0.787-0.112,1.051-0.339c-0.139,0.521-0.264,0.834-0.369,0.938
						c-0.107,0.108-0.358,0.162-0.756,0.162h-0.627h-0.64V40.02z M22.256,36.23h-0.09c-0.374,0-0.721,0.242-1.04,0.723
						c0.101-0.652,0.239-1.075,0.416-1.264c0.14-0.143,0.562-0.213,1.271-0.213h0.905c0.57,0,1.033-0.117,1.39-0.344
						c-0.157,0.51-0.299,0.821-0.424,0.932c-0.125,0.111-0.396,0.166-0.81,0.166h-0.979H22.256z"/>
				</g>
				<g display="inline">
					<path stroke="#13007C" stroke-width="0.1306" stroke-miterlimit="10" d="M10.579,38.852c-0.086,0.357-0.14,0.746-0.163,1.164
						c0.004-0.022,0.304-1.24,0.569-2.168C10.816,38.095,10.681,38.426,10.579,38.852z"/>
					<path stroke="#13007C" stroke-width="0.1306" stroke-miterlimit="10" d="M10.703,35.451c0.035-0.066,0.163-0.166,0.249-0.211
						c-0.207,0.072-0.443,0.398-0.443,0.398s-0.32,0.479-0.49,0.996c-0.04,0.12-0.067,0.242-0.098,0.359
						c0.077-0.256,0.162-0.491,0.248-0.704C10.384,35.77,10.703,35.451,10.703,35.451z"/>
					<path stroke="#13007C" stroke-width="0.1306" stroke-miterlimit="10" d="M10.55,41.859c0.1,0.388,0.231,0.686,0.399,0.896
						c0.04,0.05,0.081,0.093,0.124,0.129c-0.36-1.5-0.653-2.847-0.658-2.864c-0.008,0.146-0.012,0.299-0.012,0.451
						C10.403,41.014,10.452,41.477,10.55,41.859z"/>
					<path stroke="#13007C" stroke-width="0.1306" stroke-miterlimit="10" d="M9.641,38.131c0.015-0.084,0.032-0.168,0.05-0.25
						C9.62,37.518,9.525,37.089,9.406,36.6c-0.12-0.494-0.224-0.951-0.313-1.371c0,0-1.978-2.547-2.237-2.557
						c0.55,2.139,1.946,7.188,1.946,7.188c-0.186,0.642-1.697,6.877-1.932,7.595c0.294-0.011,1.714-2.297,1.714-2.297
						c0.136-0.503,0.294-1.065,0.474-1.681c0.179-0.615,0.308-1.094,0.386-1.432c0.022,0.107,0.046,0.221,0.071,0.333
						c-0.087-0.576-0.132-1.215-0.132-1.923C9.383,39.6,9.513,38.816,9.641,38.131z"/>
					<path stroke="#13007C" stroke-width="0.1306" stroke-miterlimit="10" d="M9.996,43.991c-0.113-0.277-0.218-0.548-0.307-0.835
						c0.04,0.171,0.121,0.359,0.168,0.488c0.01,0.021,0.462,1.029,0.462,1.029s0.306,0.473,0.547,0.473
						c-0.121-0.045-0.239-0.113-0.351-0.209C10.385,44.822,10.23,44.564,9.996,43.991z"/>
					<path stroke="#13007C" stroke-width="0.1306" stroke-miterlimit="10" d="M11.568,43.07c-0.188,0-0.353-0.063-0.495-0.188
						c0.183,0.77,0.386,1.581,0.573,2.273c-0.32,0.066-0.696-0.012-0.715-0.012c-0.022-0.002-0.043,0-0.065,0
						c0.16,0.058,0.359,0.078,0.534,0.078c0.317,0,0.441-0.074,0.846-0.228c0.01-0.272,0.331-2.045,0.352-2.325
						c-0.237,0.156-0.435,0.264-0.593,0.318C11.847,43.042,11.701,43.07,11.568,43.07z"/>
					<path stroke="#13007C" stroke-width="0.1306" stroke-miterlimit="10" d="M10.415,40.02c0-0.002,0.001-0.002,0.001-0.004
						L10.415,40.02L10.415,40.02z"/>
					<path stroke="#13007C" stroke-width="0.1306" stroke-miterlimit="10" d="M9.921,36.995c-0.086,0.276-0.166,0.575-0.231,0.886
						c0,0,0.001,0,0.001,0.002C9.751,37.632,9.828,37.337,9.921,36.995z"/>
					<path stroke="#13007C" stroke-width="0.1306" stroke-miterlimit="10" d="M9.523,42.447c0.042,0.255,0.099,0.486,0.165,0.709
						c-0.062-0.271-0.12-0.529-0.174-0.777C9.518,42.398,9.52,42.425,9.523,42.447z"/>
					<path stroke="#13007C" stroke-width="0.1306" stroke-miterlimit="10" d="M11.777,35.229c-0.146,0.498-0.36,1.207-0.646,2.121
						c-0.046,0.148-0.096,0.318-0.146,0.498c0.025-0.037,0.048-0.078,0.076-0.113c0.204-0.256,0.433-0.385,0.688-0.385
						c0.117,0,0.244,0.025,0.381,0.074c0.137,0.047,0.315,0.135,0.536,0.268l-0.352-2.266c-0.411-0.183-0.448-0.271-0.728-0.271
						c-0.213,0-0.432-0.017-0.635,0.085c0.043,0,0.094-0.053,0.138-0.053C11.253,35.188,11.491,35.152,11.777,35.229z"/>
				</g>
			</g>
			
				<text transform="matrix(0.907 0 0 1 5.7383 44.8828)" display="none" enable-background="new    " font-family="'ArialMT'" font-size="3.37">Web Developers</text>
		</g>
		<g id="Capa_2_2_" display="none">
			<g display="inline">
				<path stroke="#13007C" stroke-width="0.1306" stroke-miterlimit="10" d="M17.061,23.541c1.098,0,2.139,0.128,2.723,0.02
					c-0.245-2.691-0.366-4.922-0.366-6.692l0.007-0.863c-0.173,0.322-0.564,1.021-1.175,2.093c-1.103,1.957-1.91,3.662-2.423,5.119
					l-0.899,2.244c-0.666,1.801-1.001,3.198-1.001,4.186c0,0.293,0.078,0.576,0.231,0.854c-0.127,0.063-0.414,0.211-0.857,0.45
					c-0.208,0.104-0.403,0.159-0.589,0.159c-0.371,0-0.556-0.258-0.556-0.771c0-1.067,0.458-2.692,1.375-4.878l0.246-0.587H13.37
					c-0.869,0-1.542,0.196-2.019,0.587c0.249-1.296,0.919-1.943,2.01-1.943l0.986,0.034l0.214-0.459
					c0.832-1.812,2.103-4.245,3.813-7.306c0.577-1.036,1.009-1.679,1.297-1.932c0.284-0.253,0.838-0.484,1.657-0.691
					c-0.153,1.38-0.229,2.665-0.229,3.852c0,3.151,0.252,6.348,0.754,9.584c0.276,1.779,0.695,2.928,1.264,3.44
					c-0.498,0.71-0.924,1.069-1.28,1.069c-0.835,0-1.481-2.078-1.938-6.235c-0.873,0.137-2.471-0.041-3.36-0.041L17.061,23.541z"/>
				<path stroke="#13007C" stroke-width="0.1306" stroke-miterlimit="10" d="M26.734,23.396l-0.701,5.041
					c-0.102,0.729-0.15,1.199-0.15,1.414s0.033,0.443,0.104,0.688c-0.541,0.391-1.023,0.587-1.454,0.587
					c-0.271,0-0.409-0.162-0.409-0.481c0-0.168,0.057-0.646,0.156-1.438l0.826-6.018c-1.323-0.438-1.986-1.08-1.986-1.93
					c0-0.177,0.027-0.4,0.079-0.677c0.563,0.681,1.249,1.173,2.054,1.479l0.454-2.658l1.623-0.452L26.734,23.396z M28.545,22.027
					c0.749-0.264,1.467-0.747,2.031-1.389c0.953-1.086,1.432-2.479,1.432-4.18c0-0.933-0.249-1.686-0.749-2.255
					c-0.499-0.571-1.161-0.857-1.983-0.857c-2.449,0-4.416,1.502-5.896,4.502c-0.126-0.474-0.189-0.845-0.189-1.113
					c0-1.156,0.709-2.234,2.125-3.232c1.416-1,2.949-1.498,4.6-1.498c2.502,0,3.754,1.348,3.754,4.043
					c0,1.967-0.648,3.686-1.949,5.154c-0.932,1.057-2.46,1.898-3.617,2.195L28.545,22.027z"/>
				<path stroke="#13007C" stroke-width="0.1306" stroke-miterlimit="10" d="M37.662,23.671l-0.141,0.943
					c-0.17,1.228-0.256,2.1-0.256,2.612c0,1.02,0.685,1.527,2.049,1.527c1.356,0,2.552-0.349,3.584-1.045
					c-0.238,1.148-0.631,1.859-1.185,2.127c-0.333,0.162-0.912,0.327-1.739,0.501c-0.826,0.172-1.461,0.259-1.906,0.259
					c-1.732,0-2.6-0.832-2.6-2.494c0-0.446,0.227-2.078,0.396-3.345L37.662,23.671z M36.258,21.659h-0.119
					c-0.535,0-1.055,0.169-1.558,0.505c0.291-0.828,0.53-1.355,0.72-1.585c0.188-0.231,0.484-0.349,0.895-0.349h0.261l0.364-2.215
					l1.754-1.031l-0.453,3.248h1.645c1.147,0,2.063-0.211,2.746-0.633c-0.361,0.974-0.681,1.561-0.962,1.762
					c-0.28,0.197-0.938,0.298-1.977,0.298H37.93H36.258L36.258,21.659z M37.234,14.562h-0.23c-0.98,0-1.888,0.453-2.727,1.358
					c0.267-1.227,0.629-2.018,1.091-2.37c0.36-0.269,1.469-0.402,3.327-0.402h2.367c1.494,0,2.709-0.215,3.642-0.645
					c-0.42,0.958-0.792,1.541-1.115,1.749c-0.327,0.207-1.03,0.31-2.114,0.31h-2.563H37.234z"/>
			</g>
			<g display="inline">
				<path stroke="#13007C" stroke-width="0.1306" stroke-miterlimit="10" d="M6.68,19.473c-0.226,0.672-0.368,1.401-0.427,2.182
					c0.014-0.043,0.798-2.32,1.488-4.063C7.304,18.055,6.947,18.676,6.68,19.473z"/>
				<path stroke="#13007C" stroke-width="0.1306" stroke-miterlimit="10" d="M7.006,13.099c0.09-0.123,0.424-0.309,0.652-0.391
					c-0.539,0.133-1.159,0.747-1.159,0.747s-0.837,0.895-1.281,1.864c-0.103,0.227-0.177,0.459-0.258,0.673
					c0.205-0.477,0.424-0.92,0.65-1.315C6.17,13.696,7.006,13.099,7.006,13.099z"/>
				<path stroke="#13007C" stroke-width="0.1306" stroke-miterlimit="10" d="M6.605,25.113c0.257,0.721,0.604,1.281,1.042,1.677
					c0.102,0.092,0.21,0.171,0.324,0.241c-0.94-2.813-1.708-5.336-1.72-5.37c-0.02,0.276-0.031,0.557-0.031,0.847
					C6.221,23.52,6.348,24.389,6.605,25.113z"/>
				<path stroke="#13007C" stroke-width="0.1306" stroke-miterlimit="10" d="M4.224,18.125c0.042-0.16,0.085-0.316,0.132-0.471
					c-0.184-0.684-0.432-1.482-0.746-2.403c-0.313-0.923-0.585-1.778-0.817-2.569c0,0-5.177-4.771-5.856-4.789
					c1.441,4.008,5.09,13.475,5.09,13.475c-0.484,1.2-4.439,12.885-5.055,14.229c0.774-0.02,4.486-4.304,4.486-4.304
					c0.358-0.946,0.772-1.995,1.24-3.149c0.469-1.156,0.805-2.051,1.011-2.688c0.06,0.206,0.123,0.414,0.188,0.627
					c-0.231-1.079-0.348-2.274-0.348-3.603C3.549,20.874,3.891,19.408,4.224,18.125z"/>
				<path stroke="#13007C" stroke-width="0.1306" stroke-miterlimit="10" d="M5.155,29.105c-0.298-0.521-0.573-1.024-0.802-1.565
					c0.104,0.323,0.314,0.674,0.438,0.911c0.023,0.043,1.206,1.939,1.206,1.939s0.799,0.877,1.435,0.877
					c-0.319-0.084-0.626-0.207-0.918-0.392C6.175,30.665,5.77,30.182,5.155,29.105z"/>
				<path stroke="#13007C" stroke-width="0.1306" stroke-miterlimit="10" d="M9.267,27.38c-0.493,0-0.923-0.114-1.295-0.349
					c0.481,1.443,1.008,2.963,1.502,4.263c-0.843,0.122-1.825-0.03-1.872-0.03c-0.058,0-0.113,0.002-0.171,0.004
					c0.421,0.11,0.94,0.149,1.396,0.149c0.831,0,1.156-0.142,2.213-0.425c0.031-0.516,0.867-3.833,0.926-4.355
					c-0.623,0.293-1.141,0.49-1.554,0.592C10,27.33,9.618,27.38,9.267,27.38z"/>
				<path stroke="#13007C" stroke-width="0.1306" stroke-miterlimit="10" d="M6.252,21.661c0.001-0.002,0.001-0.004,0.001-0.009
					c0,0.003-0.001,0.007-0.001,0.007V21.661z"/>
				<path stroke="#13007C" stroke-width="0.1306" stroke-miterlimit="10" d="M4.958,15.992c-0.224,0.521-0.431,1.081-0.603,1.662
					c0,0.001,0,0.003,0.001,0.003C4.515,17.188,4.715,16.632,4.958,15.992z"/>
				<path stroke="#13007C" stroke-width="0.1306" stroke-miterlimit="10" d="M3.92,26.211c0.107,0.48,0.256,0.914,0.432,1.329
					c-0.164-0.505-0.315-0.989-0.455-1.457C3.905,26.124,3.911,26.169,3.92,26.211z"/>
				<path stroke="#13007C" stroke-width="0.1306" stroke-miterlimit="10" d="M9.815,12.682c-0.38,0.936-0.944,2.262-1.691,3.979
					c-0.119,0.276-0.25,0.594-0.383,0.929c0.067-0.07,0.129-0.148,0.199-0.21c0.534-0.479,1.135-0.719,1.802-0.719
					c0.306,0,0.638,0.045,0.998,0.133c0.357,0.088,0.826,0.259,1.404,0.507l-0.92-4.248c-1.078-0.338-1.174-0.506-1.905-0.506
					c-0.558,0-1.132-0.033-1.662,0.162c0.112,0,0.245-0.099,0.361-0.099C8.445,12.609,9.067,12.544,9.815,12.682z"/>
			</g>
			<text transform="matrix(1.0403 0 0 1 -3.2207 40.4443)" display="inline" font-family="'ArialMT'" font-size="7.0056">Web Developers</text>
		</g>
	</g>
</g>
<g>
	<path fill="#0600FF" stroke="#FF0000" stroke-width="0.1275" stroke-miterlimit="10" d="M9.921,16.818
		c0.364,0.602,0.812,1.532,1.346,2.795c0.63,1.481,1.063,2.451,1.296,2.905c0.234,0.455,0.352,0.954,0.352,1.496
		c0,0.544-0.088,1.021-0.263,1.431c-0.176,0.412-0.38,0.617-0.615,0.617c-0.182,0-0.364-0.154-0.546-0.463
		c-0.26-0.425-0.815-1.643-1.667-3.653c-0.649-1.541-1.277-2.575-1.881-3.104c-0.495-0.411-0.741-1.02-0.741-1.827
		c0-0.734,0.224-1.343,0.672-1.827c0.604-0.66,1.268-1.848,1.989-3.565c1.008-2.378,1.607-3.746,1.798-4.105
		c0.193-0.359,0.387-0.539,0.581-0.539c0.234,0,0.441,0.202,0.619,0.605c0.179,0.404,0.268,0.877,0.268,1.42
		c0,0.499-0.097,0.968-0.292,1.408C12.212,11.91,11.24,14.044,9.921,16.818z"/>
	<g>
		<path fill="#0600FF" stroke="#FF0000" stroke-width="0.1275" stroke-miterlimit="10" d="M13.979,29.399
			c-0.163-0.035-0.291-0.193-0.387-0.474c-0.097-0.28-0.125-0.608-0.086-0.985c0.016-0.161,0.05-0.33,0.099-0.508
			c0.565-2.109,1.532-5.116,2.9-9.019c1.367-3.902,2.337-6.913,2.906-9.032c0.947-3.512,1.565-5.22,1.857-5.126
			c0.16,0.046,0.288,0.211,0.384,0.497c0.097,0.286,0.125,0.612,0.087,0.978c-0.024,0.233-0.076,0.508-0.158,0.822l-1.16,3.984
			c-0.486,1.815-1.128,3.893-1.923,6.232l-2.08,5.996l-1.815,5.852C14.424,29.191,14.215,29.452,13.979,29.399z"/>
		<path fill="#0600FF" stroke="#FF0000" stroke-width="0.1275" stroke-miterlimit="10" d="M23.601,16.665
			c0,0.528-0.116,1.049-0.351,1.563c-1.504,3.244-3.081,6.09-4.729,8.54c-0.178,0.265-0.346,0.396-0.502,0.396
			c-0.229,0-0.426-0.209-0.594-0.627c-0.167-0.417-0.251-0.892-0.251-1.419c0-0.586,0.123-1.101,0.37-1.541l3.678-6.515
			c-0.563-0.866-1.259-2.194-2.087-3.984c-1.011-2.216-1.516-3.749-1.516-4.6c0-0.529,0.089-0.991,0.265-1.387
			c0.178-0.396,0.38-0.594,0.607-0.594c0.232,0,0.445,0.25,0.635,0.748c1.44,3.742,2.745,6.317,3.914,7.726
			C23.414,15.411,23.601,15.975,23.601,16.665z"/>
	</g>
</g>
<g>
	<path fill="#0600FF" stroke="#FF0000" stroke-width="0.2923" stroke-miterlimit="10" d="M4.452,19.008
		c0.387,0.863,0.582,1.539,0.582,2.032c0,0.345-0.034,0.865-0.103,1.558c-0.069,0.694-0.103,1.213-0.103,1.56
		c0,0.881,0.167,1.889,0.504,3.023c0.423,1.416,0.932,2.124,1.528,2.124c0.707,0,1.16,0.041,1.358,0.127
		c0.44,0.177,0.66,0.614,0.66,1.306c0,0.661-0.22,1.104-0.66,1.324c-0.267,0.124-0.72,0.189-1.358,0.189
		c-1.39,0-2.516-0.968-3.378-2.897c-0.716-1.606-1.074-3.338-1.074-5.196c0-0.283,0.034-0.713,0.103-1.292
		c0.069-0.577,0.104-1.008,0.104-1.291c0-0.86-0.408-1.646-1.223-2.354c-0.816-0.709-1.223-1.299-1.223-1.771
		c0-0.546,0.354-1.218,1.062-2.016c0.638-0.724,1.172-1.161,1.604-1.307v-0.441l-0.039-3.132L2.731,7.421
		c0-3.317,0.858-5.433,2.575-6.345c0.595-0.305,1.165-0.457,1.708-0.457c0.483,0,0.932,0.141,1.346,0.424
		C8.862,1.38,9.112,1.82,9.112,2.367c0,0.566-0.307,0.934-0.918,1.101C7.615,3.562,7.18,3.617,6.886,3.625
		C5.678,3.783,5.074,4.896,5.074,6.964c0,0.452,0.028,1.521,0.085,3.211c0.055,1.691,0.083,2.761,0.083,3.212
		c0,0.63-0.176,1.338-0.531,2.125c-0.371,0.831-0.793,1.385-1.268,1.669C3.788,17.656,4.125,18.263,4.452,19.008z"/>
	<path fill="#0600FF" stroke="#FF0000" stroke-width="0.2934" stroke-miterlimit="10" d="M28.577,17.182
		c-0.479-0.282-0.902-0.838-1.277-1.669c-0.356-0.787-0.534-1.495-0.534-2.125c0-0.451,0.028-1.521,0.084-3.212
		c0.057-1.689,0.084-2.759,0.084-3.211c0-2.068-0.607-3.181-1.825-3.339c-0.295-0.01-0.733-0.063-1.316-0.158
		c-0.618-0.167-0.926-0.535-0.926-1.101c0-0.546,0.251-0.987,0.757-1.323c0.417-0.284,0.869-0.424,1.354-0.424
		c0.547,0,1.122,0.152,1.723,0.457c1.729,0.912,2.594,3.027,2.594,6.345l-0.065,3.133l-0.038,3.132v0.441
		c0.435,0.146,0.973,0.583,1.617,1.307c0.712,0.797,1.068,1.47,1.068,2.016c0,0.472-0.412,1.062-1.238,1.771
		c-0.827,0.709-1.237,1.493-1.237,2.354c0,0.281,0.035,0.714,0.109,1.291c0.076,0.578,0.111,1.009,0.111,1.292
		c0,1.858-0.361,3.589-1.082,5.196c-0.869,1.93-2.002,2.897-3.402,2.897c-0.645,0-1.1-0.065-1.369-0.189
		c-0.443-0.221-0.664-0.662-0.664-1.324c0-0.691,0.221-1.129,0.664-1.306c0.198-0.086,0.655-0.127,1.369-0.127
		c0.599,0,1.112-0.708,1.538-2.124c0.34-1.135,0.509-2.142,0.509-3.023c0-0.347-0.036-0.865-0.104-1.56
		c-0.07-0.692-0.104-1.213-0.104-1.559c0-0.494,0.194-1.168,0.586-2.031C27.891,18.263,28.229,17.656,28.577,17.182z"/>
</g>
</svg>
